<mxfile host="app.diagrams.net" modified="2024-06-11T16:09:17.819Z" agent="Mozilla/5.0 (Macintosh; Intel Mac OS X 10_15_7) AppleWebKit/605.1.15 (KHTML, like Gecko) Version/15.6 Safari/605.1.15" etag="rDwNlIH0UceCKt-ZBCQa" version="24.5.2" type="github">
  <diagram name="Pagina-1" id="woLgoflBnYrOJVL_EDXt">
    <mxGraphModel dx="5419" dy="3420" grid="0" gridSize="10" guides="1" tooltips="1" connect="1" arrows="1" fold="1" page="0" pageScale="1" pageWidth="827" pageHeight="1169" math="0" shadow="0">
      <root>
        <mxCell id="0" />
        <mxCell id="1" parent="0" />
        <mxCell id="nYtGBeRSti1WLGGYR-Tt-14" value="TurnoProntoSoccorso" style="rounded=1;arcSize=10;whiteSpace=wrap;html=1;align=center;" parent="1" vertex="1">
          <mxGeometry x="-793" y="-386" width="253.5" height="66" as="geometry" />
        </mxCell>
        <mxCell id="nYtGBeRSti1WLGGYR-Tt-88" value="" style="endArrow=none;html=1;rounded=0;fontSize=12;startSize=8;endSize=8;curved=1;entryX=0.5;entryY=1;entryDx=0;entryDy=0;exitX=0.5;exitY=0;exitDx=0;exitDy=0;" parent="1" source="W7nRIWuPNDp_MP-GWuMY-126" target="nYtGBeRSti1WLGGYR-Tt-14" edge="1">
          <mxGeometry relative="1" as="geometry">
            <mxPoint x="-666.87" y="-223" as="sourcePoint" />
            <mxPoint x="-666.58" y="-280" as="targetPoint" />
          </mxGeometry>
        </mxCell>
        <mxCell id="nYtGBeRSti1WLGGYR-Tt-90" value="" style="endArrow=none;html=1;rounded=0;fontSize=12;startSize=8;endSize=8;curved=1;entryX=0.5;entryY=0;entryDx=0;entryDy=0;" parent="1" target="W7nRIWuPNDp_MP-GWuMY-122" edge="1">
          <mxGeometry relative="1" as="geometry">
            <mxPoint x="-666" y="-173" as="sourcePoint" />
            <mxPoint x="-666.87" y="-107" as="targetPoint" />
          </mxGeometry>
        </mxCell>
        <mxCell id="W7nRIWuPNDp_MP-GWuMY-4" value="&lt;p style=&quot;margin: 0px 0px 0px 72px; text-indent: -72px; font-stretch: normal; line-height: normal; font-family: Times;&quot;&gt;&lt;b&gt;CodiceOspedale&lt;/b&gt;&lt;/p&gt;" style="ellipse;whiteSpace=wrap;html=1;align=center;fontStyle=4;" parent="1" vertex="1">
          <mxGeometry x="-469.5" y="-79" width="109" height="38" as="geometry" />
        </mxCell>
        <mxCell id="W7nRIWuPNDp_MP-GWuMY-8" value="" style="endArrow=none;html=1;rounded=0;entryX=0;entryY=1;entryDx=0;entryDy=0;" parent="1" target="PDs4ldswSS4VjeUQPrsG-1" edge="1">
          <mxGeometry relative="1" as="geometry">
            <mxPoint x="-606.35" y="-88.42" as="sourcePoint" />
            <mxPoint x="-522" y="-128" as="targetPoint" />
          </mxGeometry>
        </mxCell>
        <mxCell id="W7nRIWuPNDp_MP-GWuMY-9" value="" style="endArrow=none;html=1;rounded=0;entryX=0.75;entryY=1;entryDx=0;entryDy=0;exitX=0;exitY=0;exitDx=0;exitDy=0;" parent="1" source="W7nRIWuPNDp_MP-GWuMY-25" target="W7nRIWuPNDp_MP-GWuMY-122" edge="1">
          <mxGeometry relative="1" as="geometry">
            <mxPoint x="-67" y="7" as="sourcePoint" />
            <mxPoint x="-10" y="-22" as="targetPoint" />
          </mxGeometry>
        </mxCell>
        <mxCell id="W7nRIWuPNDp_MP-GWuMY-11" value="" style="endArrow=none;html=1;rounded=0;entryX=0.028;entryY=0.716;entryDx=0;entryDy=0;exitX=1;exitY=0.5;exitDx=0;exitDy=0;entryPerimeter=0;" parent="1" source="W7nRIWuPNDp_MP-GWuMY-122" target="W7nRIWuPNDp_MP-GWuMY-4" edge="1">
          <mxGeometry relative="1" as="geometry">
            <mxPoint x="-545" y="-88" as="sourcePoint" />
            <mxPoint x="-506" y="-109" as="targetPoint" />
          </mxGeometry>
        </mxCell>
        <mxCell id="W7nRIWuPNDp_MP-GWuMY-15" style="edgeStyle=orthogonalEdgeStyle;rounded=0;orthogonalLoop=1;jettySize=auto;html=1;exitX=0.5;exitY=1;exitDx=0;exitDy=0;" parent="1" edge="1">
          <mxGeometry relative="1" as="geometry">
            <mxPoint x="-2275.5" y="537.75" as="sourcePoint" />
            <mxPoint x="-2275.5" y="537.75" as="targetPoint" />
          </mxGeometry>
        </mxCell>
        <mxCell id="W7nRIWuPNDp_MP-GWuMY-25" value="Indirizzo" style="ellipse;whiteSpace=wrap;html=1;align=center;" parent="1" vertex="1">
          <mxGeometry x="-576" y="36" width="100" height="28" as="geometry" />
        </mxCell>
        <mxCell id="W7nRIWuPNDp_MP-GWuMY-26" value="Nome" style="ellipse;whiteSpace=wrap;html=1;align=center;" parent="1" vertex="1">
          <mxGeometry x="-476" width="100" height="28" as="geometry" />
        </mxCell>
        <mxCell id="W7nRIWuPNDp_MP-GWuMY-28" value="&lt;p style=&quot;margin: 0px 0px 0px 72px; text-indent: -72px; font-stretch: normal; line-height: normal; font-family: Times;&quot;&gt;OrarioApertura&lt;/p&gt;" style="ellipse;whiteSpace=wrap;html=1;align=center;" parent="1" vertex="1">
          <mxGeometry x="-1772" y="819" width="114" height="31" as="geometry" />
        </mxCell>
        <mxCell id="W7nRIWuPNDp_MP-GWuMY-54" value="" style="endArrow=none;html=1;rounded=0;" parent="1" edge="1">
          <mxGeometry relative="1" as="geometry">
            <mxPoint x="797" y="-630" as="sourcePoint" />
            <mxPoint x="796.5" y="-631" as="targetPoint" />
            <Array as="points" />
          </mxGeometry>
        </mxCell>
        <mxCell id="W7nRIWuPNDp_MP-GWuMY-74" value="&lt;p style=&quot;margin: 0px 0px 0px 72px; text-indent: -72px; font-stretch: normal; line-height: normal; font-family: Times;&quot;&gt;DataAssunzioneRuolo&lt;/p&gt;" style="ellipse;whiteSpace=wrap;html=1;align=center;" parent="1" vertex="1">
          <mxGeometry x="-1715.32" y="-610" width="159" height="28" as="geometry" />
        </mxCell>
        <mxCell id="W7nRIWuPNDp_MP-GWuMY-98" value="&lt;p style=&quot;margin: 0px 0px 0px 72px; text-indent: -72px; font-stretch: normal; line-height: normal; font-family: Times;&quot;&gt;&lt;b&gt;CodiceRersonale&lt;/b&gt;&lt;/p&gt;" style="ellipse;whiteSpace=wrap;html=1;align=center;fontStyle=4;" parent="1" vertex="1">
          <mxGeometry x="-1379" y="-279" width="123" height="32" as="geometry" />
        </mxCell>
        <mxCell id="W7nRIWuPNDp_MP-GWuMY-99" value="&lt;p style=&quot;margin: 0px 0px 0px 72px; text-indent: -72px; font-stretch: normal; line-height: normal; font-family: Times;&quot;&gt;Nome&lt;/p&gt;" style="ellipse;whiteSpace=wrap;html=1;align=center;" parent="1" vertex="1">
          <mxGeometry x="-1185" y="-499" width="100" height="28" as="geometry" />
        </mxCell>
        <mxCell id="W7nRIWuPNDp_MP-GWuMY-100" value="&lt;p style=&quot;margin: 0px 0px 0px 72px; text-indent: -72px; font-stretch: normal; line-height: normal; font-family: Times;&quot;&gt;Cognome&lt;/p&gt;" style="ellipse;whiteSpace=wrap;html=1;align=center;" parent="1" vertex="1">
          <mxGeometry x="-1725" y="-471" width="100" height="28" as="geometry" />
        </mxCell>
        <mxCell id="W7nRIWuPNDp_MP-GWuMY-101" value="&lt;p style=&quot;margin: 0px 0px 0px 72px; text-indent: -72px; font-stretch: normal; line-height: normal; font-family: Times;&quot;&gt;Tipo&lt;/p&gt;" style="ellipse;whiteSpace=wrap;html=1;align=center;" parent="1" vertex="1">
          <mxGeometry x="-1722" y="-323" width="100" height="28" as="geometry" />
        </mxCell>
        <mxCell id="W7nRIWuPNDp_MP-GWuMY-102" value="&lt;p style=&quot;margin: 0px 0px 0px 72px; text-indent: -72px; font-stretch: normal; line-height: normal; font-family: Times;&quot;&gt;AnzianitÃ Servizio&lt;/p&gt;" style="ellipse;whiteSpace=wrap;html=1;align=center;" parent="1" vertex="1">
          <mxGeometry x="-1067.38" y="-796" width="159" height="28" as="geometry" />
        </mxCell>
        <mxCell id="W7nRIWuPNDp_MP-GWuMY-109" value="" style="endArrow=none;html=1;rounded=0;" parent="1" edge="1">
          <mxGeometry relative="1" as="geometry">
            <mxPoint x="-1255" y="-297" as="sourcePoint" />
            <mxPoint x="-1496" y="-297" as="targetPoint" />
            <Array as="points" />
          </mxGeometry>
        </mxCell>
        <mxCell id="W7nRIWuPNDp_MP-GWuMY-114" value="&lt;p style=&quot;margin: 0px 0px 0px 72px; text-indent: -72px; font-stretch: normal; line-height: normal; font-family: Times;&quot;&gt;Specializzazione&lt;/p&gt;" style="ellipse;whiteSpace=wrap;html=1;align=center;" parent="1" vertex="1">
          <mxGeometry x="-1831" y="-665" width="159" height="28" as="geometry" />
        </mxCell>
        <mxCell id="W7nRIWuPNDp_MP-GWuMY-122" value="Ospedale" style="rounded=1;arcSize=10;whiteSpace=wrap;html=1;align=center;" parent="1" vertex="1">
          <mxGeometry x="-793" y="-88" width="253.5" height="66" as="geometry" />
        </mxCell>
        <mxCell id="W7nRIWuPNDp_MP-GWuMY-123" value="Laboratorio/Ambulatorio" style="rounded=1;arcSize=10;whiteSpace=wrap;html=1;align=center;" parent="1" vertex="1">
          <mxGeometry x="-1772.75" y="204" width="253.5" height="66" as="geometry" />
        </mxCell>
        <mxCell id="W7nRIWuPNDp_MP-GWuMY-126" value="Turni" style="shape=rhombus;perimeter=rhombusPerimeter;whiteSpace=wrap;html=1;align=center;" parent="1" vertex="1">
          <mxGeometry x="-795.06" y="-234" width="257.62" height="60" as="geometry" />
        </mxCell>
        <mxCell id="W7nRIWuPNDp_MP-GWuMY-127" value="" style="endArrow=none;html=1;rounded=0;entryX=0.855;entryY=1.008;entryDx=0;entryDy=0;entryPerimeter=0;exitX=0;exitY=0.5;exitDx=0;exitDy=0;" parent="1" source="W7nRIWuPNDp_MP-GWuMY-26" target="W7nRIWuPNDp_MP-GWuMY-122" edge="1">
          <mxGeometry relative="1" as="geometry">
            <mxPoint x="-843" y="-109" as="sourcePoint" />
            <mxPoint x="-792" y="-77" as="targetPoint" />
          </mxGeometry>
        </mxCell>
        <mxCell id="W7nRIWuPNDp_MP-GWuMY-134" value="LaboratorioEsterno" style="rounded=1;arcSize=10;whiteSpace=wrap;html=1;align=center;" parent="1" vertex="1">
          <mxGeometry x="-1937.02" y="666.5" width="253.5" height="66" as="geometry" />
        </mxCell>
        <mxCell id="W7nRIWuPNDp_MP-GWuMY-135" value="LaboratorioInterno" style="rounded=1;arcSize=10;whiteSpace=wrap;html=1;align=center;" parent="1" vertex="1">
          <mxGeometry x="-1596" y="666.5" width="253.5" height="66" as="geometry" />
        </mxCell>
        <mxCell id="W7nRIWuPNDp_MP-GWuMY-140" value="Stanza" style="rounded=1;arcSize=10;whiteSpace=wrap;html=1;align=center;" parent="1" vertex="1">
          <mxGeometry x="-793" y="209" width="253.5" height="66" as="geometry" />
        </mxCell>
        <mxCell id="W7nRIWuPNDp_MP-GWuMY-141" value="Reparto" style="rounded=1;arcSize=10;whiteSpace=wrap;html=1;align=center;" parent="1" vertex="1">
          <mxGeometry x="-1538" y="-88" width="253.5" height="66" as="geometry" />
        </mxCell>
        <mxCell id="W7nRIWuPNDp_MP-GWuMY-143" value="" style="endArrow=none;html=1;rounded=0;fontSize=12;startSize=8;endSize=8;curved=1;entryX=0;entryY=0.5;entryDx=0;entryDy=0;exitX=1;exitY=0.5;exitDx=0;exitDy=0;" parent="1" source="W7nRIWuPNDp_MP-GWuMY-135" target="W7nRIWuPNDp_MP-GWuMY-161" edge="1">
          <mxGeometry relative="1" as="geometry">
            <mxPoint x="-1084" y="479" as="sourcePoint" />
            <mxPoint x="-800.3800000000001" y="463.86" as="targetPoint" />
          </mxGeometry>
        </mxCell>
        <mxCell id="W7nRIWuPNDp_MP-GWuMY-146" value="NumeroLetti" style="ellipse;whiteSpace=wrap;html=1;align=center;" parent="1" vertex="1">
          <mxGeometry x="-519.5" y="183.5" width="100" height="28" as="geometry" />
        </mxCell>
        <mxCell id="W7nRIWuPNDp_MP-GWuMY-148" value="" style="endArrow=none;html=1;rounded=0;fontSize=12;startSize=8;endSize=8;curved=1;exitX=1;exitY=0;exitDx=0;exitDy=0;entryX=0;entryY=0.5;entryDx=0;entryDy=0;" parent="1" target="W7nRIWuPNDp_MP-GWuMY-389" edge="1">
          <mxGeometry relative="1" as="geometry">
            <mxPoint x="-539.5000000000001" y="265.59" as="sourcePoint" />
            <mxPoint x="-423.4935136523794" y="320.69050506338846" as="targetPoint" />
          </mxGeometry>
        </mxCell>
        <mxCell id="W7nRIWuPNDp_MP-GWuMY-156" value="&lt;p style=&quot;margin: 0px 0px 0px 72px; text-indent: -72px; font-stretch: normal; line-height: normal; font-family: Times;&quot;&gt;Indirizzo&lt;/p&gt;" style="ellipse;whiteSpace=wrap;html=1;align=center;" parent="1" vertex="1">
          <mxGeometry x="-1941.5" y="837" width="114" height="31" as="geometry" />
        </mxCell>
        <mxCell id="W7nRIWuPNDp_MP-GWuMY-157" value="" style="endArrow=none;html=1;rounded=0;exitX=0.5;exitY=1;exitDx=0;exitDy=0;entryX=0.5;entryY=0;entryDx=0;entryDy=0;" parent="1" edge="1" target="W7nRIWuPNDp_MP-GWuMY-28">
          <mxGeometry relative="1" as="geometry">
            <mxPoint x="-1798" y="732.5" as="sourcePoint" />
            <mxPoint x="-1814.1727598642992" y="884.5059351375239" as="targetPoint" />
          </mxGeometry>
        </mxCell>
        <mxCell id="W7nRIWuPNDp_MP-GWuMY-158" value="" style="endArrow=none;html=1;rounded=0;exitX=0.5;exitY=0;exitDx=0;exitDy=0;" parent="1" source="II6c7V7IzE4FUZW3vnJS-23" target="W7nRIWuPNDp_MP-GWuMY-134" edge="1">
          <mxGeometry relative="1" as="geometry">
            <mxPoint x="-1704" y="815.9300000000001" as="sourcePoint" />
            <mxPoint x="-1709" y="732.4999999999999" as="targetPoint" />
          </mxGeometry>
        </mxCell>
        <mxCell id="W7nRIWuPNDp_MP-GWuMY-159" value="" style="endArrow=none;html=1;rounded=0;exitX=0.311;exitY=0.997;exitDx=0;exitDy=0;exitPerimeter=0;entryX=0.331;entryY=0.085;entryDx=0;entryDy=0;entryPerimeter=0;" parent="1" source="W7nRIWuPNDp_MP-GWuMY-134" target="W7nRIWuPNDp_MP-GWuMY-156" edge="1">
          <mxGeometry relative="1" as="geometry">
            <mxPoint x="-1754.0040000000001" y="530.5839999999998" as="sourcePoint" />
            <mxPoint x="-1785.18" y="583" as="targetPoint" />
          </mxGeometry>
        </mxCell>
        <mxCell id="W7nRIWuPNDp_MP-GWuMY-161" value="StanzaInterna" style="shape=rhombus;perimeter=rhombusPerimeter;whiteSpace=wrap;html=1;align=center;" parent="1" vertex="1">
          <mxGeometry x="-797.12" y="666.5000000000001" width="257.62" height="60" as="geometry" />
        </mxCell>
        <mxCell id="W7nRIWuPNDp_MP-GWuMY-162" value="Piano" style="ellipse;whiteSpace=wrap;html=1;align=center;" parent="1" vertex="1">
          <mxGeometry x="-1535.77" y="803" width="100" height="28" as="geometry" />
        </mxCell>
        <mxCell id="W7nRIWuPNDp_MP-GWuMY-163" value="" style="endArrow=none;html=1;rounded=0;fontSize=12;startSize=8;endSize=8;curved=1;entryX=0.5;entryY=0;entryDx=0;entryDy=0;" parent="1" edge="1" target="W7nRIWuPNDp_MP-GWuMY-162">
          <mxGeometry relative="1" as="geometry">
            <mxPoint x="-1449" y="732.5" as="sourcePoint" />
            <mxPoint x="-1449" y="805.5" as="targetPoint" />
          </mxGeometry>
        </mxCell>
        <mxCell id="W7nRIWuPNDp_MP-GWuMY-164" value="" style="endArrow=none;html=1;rounded=0;fontSize=12;startSize=8;endSize=8;curved=1;" parent="1" source="W7nRIWuPNDp_MP-GWuMY-161" edge="1">
          <mxGeometry relative="1" as="geometry">
            <mxPoint x="829" y="464.0000000000001" as="sourcePoint" />
            <mxPoint x="-670" y="278" as="targetPoint" />
          </mxGeometry>
        </mxCell>
        <mxCell id="W7nRIWuPNDp_MP-GWuMY-170" value="" style="endArrow=none;html=1;rounded=0;fontSize=12;startSize=8;endSize=8;curved=1;entryX=0.5;entryY=1;entryDx=0;entryDy=0;exitX=0.5;exitY=0;exitDx=0;exitDy=0;" parent="1" edge="1">
          <mxGeometry relative="1" as="geometry">
            <mxPoint x="-1417" y="66" as="sourcePoint" />
            <mxPoint x="-1417" y="-20" as="targetPoint" />
          </mxGeometry>
        </mxCell>
        <mxCell id="W7nRIWuPNDp_MP-GWuMY-172" value="" style="endArrow=none;html=1;rounded=0;fontSize=12;startSize=8;endSize=8;curved=1;entryX=0.712;entryY=0.02;entryDx=0;entryDy=0;entryPerimeter=0;" parent="1" target="W7nRIWuPNDp_MP-GWuMY-135" edge="1">
          <mxGeometry relative="1" as="geometry">
            <mxPoint x="-1417" y="127" as="sourcePoint" />
            <mxPoint x="-1417" y="441" as="targetPoint" />
          </mxGeometry>
        </mxCell>
        <mxCell id="W7nRIWuPNDp_MP-GWuMY-176" value="RepartoDell&#39;Ospedale" style="shape=rhombus;perimeter=rhombusPerimeter;whiteSpace=wrap;html=1;align=center;" parent="1" vertex="1">
          <mxGeometry x="-1169" y="-85" width="257.62" height="60" as="geometry" />
        </mxCell>
        <mxCell id="W7nRIWuPNDp_MP-GWuMY-177" value="" style="endArrow=none;html=1;rounded=0;fontSize=12;startSize=8;endSize=8;curved=1;" parent="1" edge="1">
          <mxGeometry relative="1" as="geometry">
            <mxPoint x="-910.5" y="-55.71000000000001" as="sourcePoint" />
            <mxPoint x="-793" y="-55.08000000000001" as="targetPoint" />
          </mxGeometry>
        </mxCell>
        <mxCell id="W7nRIWuPNDp_MP-GWuMY-179" value="" style="endArrow=none;html=1;rounded=0;fontSize=12;startSize=8;endSize=8;curved=1;" parent="1" edge="1">
          <mxGeometry relative="1" as="geometry">
            <mxPoint x="-1284" y="-55.71000000000001" as="sourcePoint" />
            <mxPoint x="-1166.5" y="-55.08000000000001" as="targetPoint" />
          </mxGeometry>
        </mxCell>
        <mxCell id="W7nRIWuPNDp_MP-GWuMY-181" value="" style="endArrow=none;html=1;rounded=0;fontSize=12;startSize=8;endSize=8;curved=1;entryX=0.787;entryY=0.09;entryDx=0;entryDy=0;entryPerimeter=0;exitX=0.034;exitY=0.987;exitDx=0;exitDy=0;exitPerimeter=0;" parent="1" source="W7nRIWuPNDp_MP-GWuMY-140" target="W7nRIWuPNDp_MP-GWuMY-382" edge="1">
          <mxGeometry relative="1" as="geometry">
            <mxPoint x="-553" y="269" as="sourcePoint" />
            <mxPoint x="-509.9949999999999" y="338.6319999999996" as="targetPoint" />
          </mxGeometry>
        </mxCell>
        <mxCell id="W7nRIWuPNDp_MP-GWuMY-184" value="OraFine" style="ellipse;whiteSpace=wrap;html=1;align=center;" parent="1" vertex="1">
          <mxGeometry x="-808" y="-563" width="100" height="28" as="geometry" />
        </mxCell>
        <mxCell id="W7nRIWuPNDp_MP-GWuMY-185" value="OraInizio" style="ellipse;whiteSpace=wrap;html=1;align=center;" parent="1" vertex="1">
          <mxGeometry x="-716.25" y="-499" width="100" height="28" as="geometry" />
        </mxCell>
        <mxCell id="W7nRIWuPNDp_MP-GWuMY-187" value="" style="endArrow=none;html=1;rounded=0;fontSize=12;startSize=8;endSize=8;curved=1;entryX=0.5;entryY=1;entryDx=0;entryDy=0;exitX=0.5;exitY=0;exitDx=0;exitDy=0;" parent="1" edge="1">
          <mxGeometry relative="1" as="geometry">
            <mxPoint x="-666.78" y="-386" as="sourcePoint" />
            <mxPoint x="-666.78" y="-472" as="targetPoint" />
          </mxGeometry>
        </mxCell>
        <mxCell id="W7nRIWuPNDp_MP-GWuMY-189" value="" style="endArrow=none;html=1;rounded=0;fontSize=12;startSize=8;endSize=8;curved=1;exitX=0.168;exitY=-0.005;exitDx=0;exitDy=0;exitPerimeter=0;entryX=0.5;entryY=1;entryDx=0;entryDy=0;" parent="1" source="nYtGBeRSti1WLGGYR-Tt-14" target="W7nRIWuPNDp_MP-GWuMY-184" edge="1">
          <mxGeometry relative="1" as="geometry">
            <mxPoint x="-825.53" y="-360" as="sourcePoint" />
            <mxPoint x="-826" y="-443" as="targetPoint" />
          </mxGeometry>
        </mxCell>
        <mxCell id="W7nRIWuPNDp_MP-GWuMY-192" value="&lt;p style=&quot;margin: 0px 0px 0px 72px; text-indent: -72px; font-stretch: normal; line-height: normal; font-family: Times;&quot;&gt;&lt;b&gt;Data&lt;/b&gt;&lt;/p&gt;" style="ellipse;whiteSpace=wrap;html=1;align=center;fontStyle=4;" parent="1" vertex="1">
          <mxGeometry x="-450.5" y="-486" width="109" height="38" as="geometry" />
        </mxCell>
        <mxCell id="W7nRIWuPNDp_MP-GWuMY-193" value="" style="endArrow=none;html=1;rounded=0;fontSize=12;startSize=8;endSize=8;curved=1;exitX=0.057;exitY=0.001;exitDx=0;exitDy=0;exitPerimeter=0;" parent="1" edge="1">
          <mxGeometry relative="1" as="geometry">
            <mxPoint x="-555" y="-386" as="sourcePoint" />
            <mxPoint x="-419" y="-449" as="targetPoint" />
          </mxGeometry>
        </mxCell>
        <mxCell id="W7nRIWuPNDp_MP-GWuMY-194" value="Personale" style="rounded=1;arcSize=10;whiteSpace=wrap;html=1;align=center;" parent="1" vertex="1">
          <mxGeometry x="-1538" y="-386" width="253.5" height="66" as="geometry" />
        </mxCell>
        <mxCell id="W7nRIWuPNDp_MP-GWuMY-195" value="" style="endArrow=none;html=1;rounded=0;fontSize=12;startSize=8;endSize=8;curved=1;entryX=0.5;entryY=0;entryDx=0;entryDy=0;" parent="1" edge="1">
          <mxGeometry relative="1" as="geometry">
            <mxPoint x="-1417" y="-173" as="sourcePoint" />
            <mxPoint x="-1417" y="-88" as="targetPoint" />
          </mxGeometry>
        </mxCell>
        <mxCell id="W7nRIWuPNDp_MP-GWuMY-197" value="&lt;p style=&quot;margin: 0px; font-stretch: normal; font-size: 14px; line-height: normal; font-family: &amp;quot;Times New Roman&amp;quot;;&quot;&gt;PersonaleDelReparto&lt;/p&gt;" style="shape=rhombus;perimeter=rhombusPerimeter;whiteSpace=wrap;html=1;align=center;" parent="1" vertex="1">
          <mxGeometry x="-1545" y="-234" width="257.62" height="60" as="geometry" />
        </mxCell>
        <mxCell id="W7nRIWuPNDp_MP-GWuMY-198" value="" style="endArrow=none;html=1;rounded=0;fontSize=12;startSize=8;endSize=8;curved=1;entryX=0.5;entryY=1;entryDx=0;entryDy=0;exitX=0.5;exitY=0;exitDx=0;exitDy=0;" parent="1" edge="1">
          <mxGeometry relative="1" as="geometry">
            <mxPoint x="-1416.9" y="-234" as="sourcePoint" />
            <mxPoint x="-1416.9" y="-320" as="targetPoint" />
          </mxGeometry>
        </mxCell>
        <mxCell id="W7nRIWuPNDp_MP-GWuMY-200" value="LavoraInTurnoProntoSoccorso" style="shape=rhombus;perimeter=rhombusPerimeter;whiteSpace=wrap;html=1;align=center;" parent="1" vertex="1">
          <mxGeometry x="-1166" y="-383" width="257.62" height="60" as="geometry" />
        </mxCell>
        <mxCell id="W7nRIWuPNDp_MP-GWuMY-201" value="" style="endArrow=none;html=1;rounded=0;fontSize=12;startSize=8;endSize=8;curved=1;" parent="1" edge="1">
          <mxGeometry relative="1" as="geometry">
            <mxPoint x="-1283.5" y="-353.71000000000004" as="sourcePoint" />
            <mxPoint x="-1166" y="-353.08000000000004" as="targetPoint" />
          </mxGeometry>
        </mxCell>
        <mxCell id="W7nRIWuPNDp_MP-GWuMY-203" value="" style="endArrow=none;html=1;rounded=0;fontSize=12;startSize=8;endSize=8;curved=1;" parent="1" edge="1">
          <mxGeometry relative="1" as="geometry">
            <mxPoint x="-910.5" y="-353.71000000000004" as="sourcePoint" />
            <mxPoint x="-793" y="-353.08000000000004" as="targetPoint" />
          </mxGeometry>
        </mxCell>
        <mxCell id="W7nRIWuPNDp_MP-GWuMY-207" value="" style="endArrow=none;html=1;rounded=0;" parent="1" edge="1">
          <mxGeometry relative="1" as="geometry">
            <mxPoint x="-842" y="-460" as="sourcePoint" />
            <mxPoint x="-503" y="-475" as="targetPoint" />
            <Array as="points">
              <mxPoint x="-842" y="-271" />
              <mxPoint x="-503" y="-271" />
            </Array>
          </mxGeometry>
        </mxCell>
        <mxCell id="W7nRIWuPNDp_MP-GWuMY-208" value="" style="ellipse;whiteSpace=wrap;html=1;aspect=fixed;strokeColor=#000000;fillColor=#000000;" parent="1" vertex="1">
          <mxGeometry x="-510" y="-486" width="13" height="13" as="geometry" />
        </mxCell>
        <mxCell id="W7nRIWuPNDp_MP-GWuMY-211" value="" style="endArrow=none;html=1;rounded=0;fontSize=12;startSize=8;endSize=8;curved=1;entryX=0.5;entryY=0;entryDx=0;entryDy=0;exitX=0;exitY=0.5;exitDx=0;exitDy=0;" parent="1" edge="1" target="W7nRIWuPNDp_MP-GWuMY-74" source="4cvkdfEpKLJkki14Cyws-192">
          <mxGeometry relative="1" as="geometry">
            <mxPoint x="-1510" y="-332" as="sourcePoint" />
            <mxPoint x="-1580.0282223353406" y="-454.000109072399" as="targetPoint" />
          </mxGeometry>
        </mxCell>
        <mxCell id="W7nRIWuPNDp_MP-GWuMY-212" value="" style="endArrow=none;html=1;rounded=0;fontSize=12;startSize=8;endSize=8;curved=1;exitX=0.074;exitY=1.004;exitDx=0;exitDy=0;entryX=0.409;entryY=-0.017;entryDx=0;entryDy=0;exitPerimeter=0;entryPerimeter=0;" parent="1" source="4cvkdfEpKLJkki14Cyws-165" edge="1">
          <mxGeometry relative="1" as="geometry">
            <mxPoint x="-1475.7005" y="-278.00399999999985" as="sourcePoint" />
            <mxPoint x="-1737.239" y="-666.4759999999997" as="targetPoint" />
          </mxGeometry>
        </mxCell>
        <mxCell id="W7nRIWuPNDp_MP-GWuMY-214" value="" style="endArrow=none;html=1;rounded=0;fontSize=12;startSize=8;endSize=8;curved=1;exitX=0.932;exitY=-0.002;exitDx=0;exitDy=0;exitPerimeter=0;entryX=0.369;entryY=0.944;entryDx=0;entryDy=0;entryPerimeter=0;" parent="1" source="W7nRIWuPNDp_MP-GWuMY-194" edge="1" target="W7nRIWuPNDp_MP-GWuMY-99">
          <mxGeometry relative="1" as="geometry">
            <mxPoint x="-1237" y="-397" as="sourcePoint" />
            <mxPoint x="-1236.64" y="-433" as="targetPoint" />
          </mxGeometry>
        </mxCell>
        <mxCell id="W7nRIWuPNDp_MP-GWuMY-215" value="" style="endArrow=none;html=1;rounded=0;fontSize=12;startSize=8;endSize=8;curved=1;exitX=0;exitY=0;exitDx=0;exitDy=0;" parent="1" source="W7nRIWuPNDp_MP-GWuMY-194" edge="1" target="W7nRIWuPNDp_MP-GWuMY-100">
          <mxGeometry relative="1" as="geometry">
            <mxPoint x="-1298.36" y="-409" as="sourcePoint" />
            <mxPoint x="-1347" y="-436" as="targetPoint" />
          </mxGeometry>
        </mxCell>
        <mxCell id="W7nRIWuPNDp_MP-GWuMY-216" value="" style="endArrow=none;html=1;rounded=0;fontSize=12;startSize=8;endSize=8;curved=1;entryX=1;entryY=0;entryDx=0;entryDy=0;exitX=0;exitY=0.75;exitDx=0;exitDy=0;" parent="1" source="W7nRIWuPNDp_MP-GWuMY-194" target="W7nRIWuPNDp_MP-GWuMY-101" edge="1">
          <mxGeometry relative="1" as="geometry">
            <mxPoint x="-1037" y="-270" as="sourcePoint" />
            <mxPoint x="185.9999999999999" y="-347.58" as="targetPoint" />
          </mxGeometry>
        </mxCell>
        <mxCell id="W7nRIWuPNDp_MP-GWuMY-217" value="" style="endArrow=none;html=1;rounded=0;fontSize=12;startSize=8;endSize=8;curved=1;exitX=0.865;exitY=0.995;exitDx=0;exitDy=0;exitPerimeter=0;" parent="1" source="W7nRIWuPNDp_MP-GWuMY-194" target="W7nRIWuPNDp_MP-GWuMY-98" edge="1">
          <mxGeometry relative="1" as="geometry">
            <mxPoint x="-1325.02" y="-320" as="sourcePoint" />
            <mxPoint x="-1338.997760019833" y="-274.31612932023063" as="targetPoint" />
          </mxGeometry>
        </mxCell>
        <mxCell id="W7nRIWuPNDp_MP-GWuMY-228" value="PazienteRicoverato" style="rounded=1;arcSize=10;whiteSpace=wrap;html=1;align=center;" parent="1" vertex="1">
          <mxGeometry x="-2356" y="-88" width="253.5" height="66" as="geometry" />
        </mxCell>
        <mxCell id="W7nRIWuPNDp_MP-GWuMY-246" value="Paziente" style="rounded=1;arcSize=10;whiteSpace=wrap;html=1;align=center;" parent="1" vertex="1">
          <mxGeometry x="-2562.88" y="204" width="253.5" height="66" as="geometry" />
        </mxCell>
        <mxCell id="W7nRIWuPNDp_MP-GWuMY-248" value="Nome" style="ellipse;whiteSpace=wrap;html=1;align=center;" parent="1" vertex="1">
          <mxGeometry x="-2356" y="311" width="100" height="28" as="geometry" />
        </mxCell>
        <mxCell id="W7nRIWuPNDp_MP-GWuMY-249" value="Cognome" style="ellipse;whiteSpace=wrap;html=1;align=center;" parent="1" vertex="1">
          <mxGeometry x="-2732" y="308" width="100" height="28" as="geometry" />
        </mxCell>
        <mxCell id="W7nRIWuPNDp_MP-GWuMY-250" value="DataNascita" style="ellipse;whiteSpace=wrap;html=1;align=center;" parent="1" vertex="1">
          <mxGeometry x="-2224" y="134" width="100" height="28" as="geometry" />
        </mxCell>
        <mxCell id="W7nRIWuPNDp_MP-GWuMY-251" value="&lt;p style=&quot;margin: 0px 0px 0px 72px; text-indent: -72px; font-stretch: normal; line-height: normal; font-family: Times;&quot;&gt;&lt;b&gt;TesseraSanitaria&lt;/b&gt;&lt;/p&gt;" style="ellipse;whiteSpace=wrap;html=1;align=center;fontStyle=4;" parent="1" vertex="1">
          <mxGeometry x="-2746" y="162" width="117" height="38" as="geometry" />
        </mxCell>
        <mxCell id="W7nRIWuPNDp_MP-GWuMY-252" value="" style="endArrow=none;html=1;rounded=0;fontSize=12;startSize=8;endSize=8;curved=1;exitX=0.922;exitY=-0.002;exitDx=0;exitDy=0;exitPerimeter=0;entryX=0;entryY=1;entryDx=0;entryDy=0;" parent="1" source="W7nRIWuPNDp_MP-GWuMY-246" edge="1">
          <mxGeometry relative="1" as="geometry">
            <mxPoint x="-2171.75" y="226.5" as="sourcePoint" />
            <mxPoint x="-2207.3553390593274" y="157.89949493661152" as="targetPoint" />
          </mxGeometry>
        </mxCell>
        <mxCell id="W7nRIWuPNDp_MP-GWuMY-253" value="" style="endArrow=none;html=1;rounded=0;fontSize=12;startSize=8;endSize=8;curved=1;exitX=1;exitY=0;exitDx=0;exitDy=0;entryX=0;entryY=0.75;entryDx=0;entryDy=0;" parent="1" source="W7nRIWuPNDp_MP-GWuMY-249" edge="1">
          <mxGeometry relative="1" as="geometry">
            <mxPoint x="-2662.0535055785836" y="307.03033000592177" as="sourcePoint" />
            <mxPoint x="-2562.88" y="258" as="targetPoint" />
          </mxGeometry>
        </mxCell>
        <mxCell id="W7nRIWuPNDp_MP-GWuMY-255" value="" style="endArrow=none;html=1;rounded=0;fontSize=12;startSize=8;endSize=8;curved=1;exitX=1;exitY=1;exitDx=0;exitDy=0;" parent="1" edge="1">
          <mxGeometry relative="1" as="geometry">
            <mxPoint x="-2399.0000000000005" y="270" as="sourcePoint" />
            <mxPoint x="-2333" y="311" as="targetPoint" />
          </mxGeometry>
        </mxCell>
        <mxCell id="W7nRIWuPNDp_MP-GWuMY-256" value="" style="endArrow=none;html=1;rounded=0;fontSize=12;startSize=8;endSize=8;curved=1;exitX=1;exitY=0.5;exitDx=0;exitDy=0;entryX=0;entryY=0.25;entryDx=0;entryDy=0;" parent="1" source="W7nRIWuPNDp_MP-GWuMY-251" target="W7nRIWuPNDp_MP-GWuMY-246" edge="1">
          <mxGeometry relative="1" as="geometry">
            <mxPoint x="-2510" y="191" as="sourcePoint" />
            <mxPoint x="-2426" y="229" as="targetPoint" />
          </mxGeometry>
        </mxCell>
        <mxCell id="W7nRIWuPNDp_MP-GWuMY-259" value="&lt;p style=&quot;margin: 0px 0px 0px 72px; text-indent: -72px; font-stretch: normal; line-height: normal; font-family: Times;&quot;&gt;&lt;b&gt;DataRicovero&lt;/b&gt;&lt;/p&gt;" style="ellipse;whiteSpace=wrap;html=1;align=center;fontStyle=4;" parent="1" vertex="1">
          <mxGeometry x="-2116" y="36" width="117" height="38" as="geometry" />
        </mxCell>
        <mxCell id="W7nRIWuPNDp_MP-GWuMY-260" value="" style="endArrow=none;html=1;rounded=0;fontSize=12;startSize=8;endSize=8;curved=1;entryX=0;entryY=0.5;entryDx=0;entryDy=0;exitX=0.85;exitY=0.987;exitDx=0;exitDy=0;exitPerimeter=0;" parent="1" source="W7nRIWuPNDp_MP-GWuMY-228" target="W7nRIWuPNDp_MP-GWuMY-259" edge="1">
          <mxGeometry relative="1" as="geometry">
            <mxPoint x="-2016" y="-98" as="sourcePoint" />
            <mxPoint x="-1952" y="-139.35" as="targetPoint" />
          </mxGeometry>
        </mxCell>
        <mxCell id="W7nRIWuPNDp_MP-GWuMY-267" value="PrenotazionePaziente" style="shape=rhombus;perimeter=rhombusPerimeter;whiteSpace=wrap;html=1;align=center;" parent="1" vertex="1">
          <mxGeometry x="-2560.06" y="355.75" width="257.62" height="60" as="geometry" />
        </mxCell>
        <mxCell id="W7nRIWuPNDp_MP-GWuMY-268" value="" style="endArrow=none;html=1;rounded=0;fontSize=12;startSize=8;endSize=8;curved=1;entryX=0.5;entryY=0;entryDx=0;entryDy=0;" parent="1" edge="1">
          <mxGeometry relative="1" as="geometry">
            <mxPoint x="-2431.96" y="270.75" as="sourcePoint" />
            <mxPoint x="-2431.96" y="355.75" as="targetPoint" />
          </mxGeometry>
        </mxCell>
        <mxCell id="W7nRIWuPNDp_MP-GWuMY-271" value="" style="endArrow=none;html=1;rounded=0;fontSize=12;startSize=8;endSize=8;curved=1;entryX=0.5;entryY=0;entryDx=0;entryDy=0;" parent="1" edge="1">
          <mxGeometry relative="1" as="geometry">
            <mxPoint x="-2432.08" y="417.75" as="sourcePoint" />
            <mxPoint x="-2432.08" y="502.75" as="targetPoint" />
          </mxGeometry>
        </mxCell>
        <mxCell id="W7nRIWuPNDp_MP-GWuMY-273" value="Prenotazione" style="rounded=1;arcSize=10;whiteSpace=wrap;html=1;align=center;" parent="1" vertex="1">
          <mxGeometry x="-2549.5" y="499.75" width="253.5" height="66" as="geometry" />
        </mxCell>
        <mxCell id="W7nRIWuPNDp_MP-GWuMY-277" value="PrenotazioneEsame" style="shape=rhombus;perimeter=rhombusPerimeter;whiteSpace=wrap;html=1;align=center;" parent="1" vertex="1">
          <mxGeometry x="-2862" y="508" width="175" height="60" as="geometry" />
        </mxCell>
        <mxCell id="W7nRIWuPNDp_MP-GWuMY-278" value="" style="endArrow=none;html=1;rounded=0;fontSize=12;startSize=8;endSize=8;curved=1;entryX=0;entryY=0.5;entryDx=0;entryDy=0;" parent="1" target="W7nRIWuPNDp_MP-GWuMY-277" edge="1">
          <mxGeometry relative="1" as="geometry">
            <mxPoint x="-3010" y="537" as="sourcePoint" />
            <mxPoint x="-2892.5" y="537.6300000000001" as="targetPoint" />
          </mxGeometry>
        </mxCell>
        <mxCell id="W7nRIWuPNDp_MP-GWuMY-280" value="" style="endArrow=none;html=1;rounded=0;fontSize=12;startSize=8;endSize=8;curved=1;exitX=1;exitY=0.5;exitDx=0;exitDy=0;" parent="1" source="W7nRIWuPNDp_MP-GWuMY-277" edge="1">
          <mxGeometry relative="1" as="geometry">
            <mxPoint x="-2667" y="538.16" as="sourcePoint" />
            <mxPoint x="-2549.5" y="538.7900000000001" as="targetPoint" />
          </mxGeometry>
        </mxCell>
        <mxCell id="W7nRIWuPNDp_MP-GWuMY-284" value="" style="ellipse;whiteSpace=wrap;html=1;aspect=fixed;strokeColor=#000000;fillColor=#000000;" parent="1" vertex="1">
          <mxGeometry x="-2271" y="587.5" width="13" height="13" as="geometry" />
        </mxCell>
        <mxCell id="W7nRIWuPNDp_MP-GWuMY-287" value="CostoPrivato" style="ellipse;whiteSpace=wrap;html=1;align=center;" parent="1" vertex="1">
          <mxGeometry x="-2905" y="454.75" width="100" height="28" as="geometry" />
        </mxCell>
        <mxCell id="W7nRIWuPNDp_MP-GWuMY-288" value="Costo AssistenzaSanitaria" style="ellipse;whiteSpace=wrap;html=1;align=center;" parent="1" vertex="1">
          <mxGeometry x="-3012.44" y="402" width="195" height="28" as="geometry" />
        </mxCell>
        <mxCell id="W7nRIWuPNDp_MP-GWuMY-292" value="" style="endArrow=none;html=1;rounded=0;fontFamily=Helvetica;fontSize=12;fontColor=default;exitX=0.864;exitY=0.97;exitDx=0;exitDy=0;entryX=1;entryY=0.5;entryDx=0;entryDy=0;exitPerimeter=0;" parent="1" source="W7nRIWuPNDp_MP-GWuMY-356" target="W7nRIWuPNDp_MP-GWuMY-355" edge="1">
          <mxGeometry width="50" height="50" relative="1" as="geometry">
            <mxPoint x="-3320.5" y="565" as="sourcePoint" />
            <mxPoint x="-3321" y="523" as="targetPoint" />
          </mxGeometry>
        </mxCell>
        <mxCell id="W7nRIWuPNDp_MP-GWuMY-293" value="" style="endArrow=none;html=1;rounded=0;fontFamily=Helvetica;fontSize=12;fontColor=default;" parent="1" edge="1">
          <mxGeometry width="50" height="50" relative="1" as="geometry">
            <mxPoint x="-3271.94" y="209" as="sourcePoint" />
            <mxPoint x="-3291.54" y="142.16000000000003" as="targetPoint" />
          </mxGeometry>
        </mxCell>
        <mxCell id="W7nRIWuPNDp_MP-GWuMY-294" value="&lt;p style=&quot;margin: 0px 0px 0px 72px; text-indent: -72px; font-stretch: normal; line-height: normal; font-family: Times;&quot;&gt;&lt;b&gt;CodiceEsame&lt;/b&gt;&lt;/p&gt;" style="ellipse;whiteSpace=wrap;html=1;align=center;fontStyle=4;" parent="1" vertex="1">
          <mxGeometry x="-3328" y="628.5" width="117" height="38" as="geometry" />
        </mxCell>
        <mxCell id="W7nRIWuPNDp_MP-GWuMY-295" value="" style="endArrow=none;html=1;rounded=0;fontFamily=Helvetica;fontSize=12;fontColor=default;entryX=0.25;entryY=1;entryDx=0;entryDy=0;exitX=0.692;exitY=0.044;exitDx=0;exitDy=0;exitPerimeter=0;" parent="1" source="W7nRIWuPNDp_MP-GWuMY-294" target="W7nRIWuPNDp_MP-GWuMY-356" edge="1">
          <mxGeometry width="50" height="50" relative="1" as="geometry">
            <mxPoint x="-3363.0002460982655" y="144.0024940834028" as="sourcePoint" />
            <mxPoint x="-3288.54" y="175.79" as="targetPoint" />
          </mxGeometry>
        </mxCell>
        <mxCell id="W7nRIWuPNDp_MP-GWuMY-305" value="DataPrenotazione" style="ellipse;whiteSpace=wrap;html=1;align=center;" parent="1" vertex="1">
          <mxGeometry x="-2437" y="641" width="123" height="28" as="geometry" />
        </mxCell>
        <mxCell id="W7nRIWuPNDp_MP-GWuMY-306" value="OraEsame" style="ellipse;whiteSpace=wrap;html=1;align=center;" parent="1" vertex="1">
          <mxGeometry x="-2576.25" y="638.5" width="105" height="28" as="geometry" />
        </mxCell>
        <mxCell id="W7nRIWuPNDp_MP-GWuMY-307" value="RegimeCosto" style="ellipse;whiteSpace=wrap;html=1;align=center;" parent="1" vertex="1">
          <mxGeometry x="-2341" y="689" width="127" height="28" as="geometry" />
        </mxCell>
        <mxCell id="W7nRIWuPNDp_MP-GWuMY-309" value="" style="endArrow=none;html=1;rounded=0;fontSize=12;startSize=8;endSize=8;curved=1;exitX=0.5;exitY=0;exitDx=0;exitDy=0;entryX=0.656;entryY=1.068;entryDx=0;entryDy=0;entryPerimeter=0;" parent="1" target="PDs4ldswSS4VjeUQPrsG-7" edge="1">
          <mxGeometry relative="1" as="geometry">
            <mxPoint x="-2544" y="499.75" as="sourcePoint" />
            <mxPoint x="-2543.5225" y="402.2399999999998" as="targetPoint" />
          </mxGeometry>
        </mxCell>
        <mxCell id="W7nRIWuPNDp_MP-GWuMY-311" value="" style="endArrow=none;html=1;rounded=0;fontSize=12;startSize=8;endSize=8;curved=1;entryX=0.983;entryY=0.983;entryDx=0;entryDy=0;entryPerimeter=0;exitX=0;exitY=0;exitDx=0;exitDy=0;" parent="1" edge="1">
          <mxGeometry relative="1" as="geometry">
            <mxPoint x="-2379.5529017722315" y="640.0397749540316" as="sourcePoint" />
            <mxPoint x="-2401.7495" y="564.9979999999997" as="targetPoint" />
          </mxGeometry>
        </mxCell>
        <mxCell id="W7nRIWuPNDp_MP-GWuMY-312" value="" style="endArrow=none;html=1;rounded=0;fontSize=12;startSize=8;endSize=8;curved=1;exitX=0.582;exitY=0.989;exitDx=0;exitDy=0;exitPerimeter=0;" parent="1" edge="1">
          <mxGeometry relative="1" as="geometry">
            <mxPoint x="-2519.003" y="568.0039999999999" as="sourcePoint" />
            <mxPoint x="-2528" y="639" as="targetPoint" />
          </mxGeometry>
        </mxCell>
        <mxCell id="W7nRIWuPNDp_MP-GWuMY-316" value="" style="endArrow=none;html=1;rounded=0;fontSize=12;startSize=8;endSize=8;curved=1;entryX=0.5;entryY=0;entryDx=0;entryDy=0;" parent="1" edge="1">
          <mxGeometry relative="1" as="geometry">
            <mxPoint x="-3145.41" y="272.14" as="sourcePoint" />
            <mxPoint x="-3145.41" y="357.14" as="targetPoint" />
          </mxGeometry>
        </mxCell>
        <mxCell id="W7nRIWuPNDp_MP-GWuMY-318" value="" style="endArrow=none;html=1;rounded=0;fontSize=12;startSize=8;endSize=8;curved=1;entryX=0.5;entryY=0;entryDx=0;entryDy=0;" parent="1" edge="1">
          <mxGeometry relative="1" as="geometry">
            <mxPoint x="-3145.61" y="415" as="sourcePoint" />
            <mxPoint x="-3145.61" y="500" as="targetPoint" />
          </mxGeometry>
        </mxCell>
        <mxCell id="W7nRIWuPNDp_MP-GWuMY-320" value="" style="endArrow=none;html=1;rounded=0;fontFamily=Helvetica;fontSize=12;fontColor=default;entryX=1;entryY=0.5;entryDx=0;entryDy=0;" parent="1" target="W7nRIWuPNDp_MP-GWuMY-322" edge="1">
          <mxGeometry width="50" height="50" relative="1" as="geometry">
            <mxPoint x="1542" y="537" as="sourcePoint" />
            <mxPoint x="1608" y="-416" as="targetPoint" />
            <Array as="points">
              <mxPoint x="1608" y="537" />
              <mxPoint x="1604" y="33" />
            </Array>
          </mxGeometry>
        </mxCell>
        <mxCell id="W7nRIWuPNDp_MP-GWuMY-322" value="TurniProntoSoccorso" style="shape=rhombus;perimeter=rhombusPerimeter;whiteSpace=wrap;html=1;align=center;" parent="1" vertex="1">
          <mxGeometry x="1375" y="-509.5" width="257.62" height="60" as="geometry" />
        </mxCell>
        <mxCell id="W7nRIWuPNDp_MP-GWuMY-326" value="(0, N)" style="text;html=1;align=center;verticalAlign=middle;whiteSpace=wrap;rounded=0;fontFamily=Helvetica;fontSize=12;fontColor=default;" parent="1" vertex="1">
          <mxGeometry x="-663" y="-170" width="42" height="23" as="geometry" />
        </mxCell>
        <mxCell id="W7nRIWuPNDp_MP-GWuMY-327" value="(1, 1)" style="text;html=1;align=center;verticalAlign=middle;whiteSpace=wrap;rounded=0;fontFamily=Helvetica;fontSize=12;fontColor=default;" parent="1" vertex="1">
          <mxGeometry x="-658.25" y="-260" width="42" height="23" as="geometry" />
        </mxCell>
        <mxCell id="W7nRIWuPNDp_MP-GWuMY-330" value="(O, N)" style="text;html=1;align=center;verticalAlign=middle;whiteSpace=wrap;rounded=0;fontFamily=Helvetica;fontSize=12;fontColor=default;" parent="1" vertex="1">
          <mxGeometry x="-1202" y="-380" width="42" height="23" as="geometry" />
        </mxCell>
        <mxCell id="W7nRIWuPNDp_MP-GWuMY-331" value="" style="endArrow=none;html=1;rounded=0;fontFamily=Helvetica;fontSize=12;fontColor=default;exitX=1;exitY=0;exitDx=0;exitDy=0;" parent="1" edge="1">
          <mxGeometry width="50" height="50" relative="1" as="geometry">
            <mxPoint x="608.3200000000006" y="-473" as="sourcePoint" />
            <mxPoint x="1375" y="-478" as="targetPoint" />
            <Array as="points" />
          </mxGeometry>
        </mxCell>
        <mxCell id="W7nRIWuPNDp_MP-GWuMY-334" value="" style="endArrow=none;html=1;rounded=0;" parent="1" edge="1">
          <mxGeometry width="50" height="50" relative="1" as="geometry">
            <mxPoint x="627" y="-613" as="sourcePoint" />
            <mxPoint x="626.5000000000005" y="-613" as="targetPoint" />
            <Array as="points" />
          </mxGeometry>
        </mxCell>
        <mxCell id="W7nRIWuPNDp_MP-GWuMY-338" value="(0, 1)" style="text;html=1;align=center;verticalAlign=middle;whiteSpace=wrap;rounded=0;fontFamily=Helvetica;fontSize=12;fontColor=default;" parent="1" vertex="1">
          <mxGeometry x="-574.5" y="-133" width="42" height="23" as="geometry" />
        </mxCell>
        <mxCell id="W7nRIWuPNDp_MP-GWuMY-340" value="&lt;p style=&quot;margin: 0px 0px 0px 72px; text-indent: -72px; font-stretch: normal; line-height: normal; font-family: Times;&quot;&gt;&lt;b&gt;NomeReparto&lt;/b&gt;&lt;/p&gt;" style="ellipse;whiteSpace=wrap;html=1;align=center;fontStyle=4;" parent="1" vertex="1">
          <mxGeometry x="-1310" y="-167" width="123" height="32" as="geometry" />
        </mxCell>
        <mxCell id="W7nRIWuPNDp_MP-GWuMY-341" value="" style="endArrow=none;html=1;rounded=0;fontSize=12;startSize=8;endSize=8;curved=1;entryX=0.474;entryY=0.973;entryDx=0;entryDy=0;entryPerimeter=0;" parent="1" source="W7nRIWuPNDp_MP-GWuMY-141" target="W7nRIWuPNDp_MP-GWuMY-340" edge="1">
          <mxGeometry relative="1" as="geometry">
            <mxPoint x="-44" y="-354" as="sourcePoint" />
            <mxPoint x="-92.6400000000001" y="-381" as="targetPoint" />
          </mxGeometry>
        </mxCell>
        <mxCell id="W7nRIWuPNDp_MP-GWuMY-218" value="" style="ellipse;whiteSpace=wrap;html=1;aspect=fixed;strokeColor=#000000;fillColor=#000000;" parent="1" vertex="1">
          <mxGeometry x="-1256" y="-303" width="13" height="13" as="geometry" />
        </mxCell>
        <mxCell id="W7nRIWuPNDp_MP-GWuMY-347" value="" style="endArrow=none;html=1;rounded=0;fontSize=12;startSize=8;endSize=8;curved=1;exitX=1;exitY=0.5;exitDx=0;exitDy=0;" parent="1" source="W7nRIWuPNDp_MP-GWuMY-349" edge="1">
          <mxGeometry relative="1" as="geometry">
            <mxPoint x="-1626" y="-55" as="sourcePoint" />
            <mxPoint x="-1538.12" y="-55.20000000000001" as="targetPoint" />
          </mxGeometry>
        </mxCell>
        <mxCell id="W7nRIWuPNDp_MP-GWuMY-349" value="RicoveroNelReparto" style="shape=rhombus;perimeter=rhombusPerimeter;whiteSpace=wrap;html=1;align=center;" parent="1" vertex="1">
          <mxGeometry x="-1951" y="-85" width="257.62" height="60" as="geometry" />
        </mxCell>
        <mxCell id="W7nRIWuPNDp_MP-GWuMY-354" value="Prescrizione" style="rounded=1;arcSize=10;whiteSpace=wrap;html=1;align=center;" parent="1" vertex="1">
          <mxGeometry x="-3271.94" y="204" width="253.5" height="66" as="geometry" />
        </mxCell>
        <mxCell id="W7nRIWuPNDp_MP-GWuMY-355" value="Descrizione" style="ellipse;whiteSpace=wrap;html=1;align=center;" parent="1" vertex="1">
          <mxGeometry x="-2994" y="600.5" width="100" height="28" as="geometry" />
        </mxCell>
        <mxCell id="W7nRIWuPNDp_MP-GWuMY-356" value="Esame" style="rounded=1;arcSize=10;whiteSpace=wrap;html=1;align=center;" parent="1" vertex="1">
          <mxGeometry x="-3265.94" y="499" width="253.5" height="66" as="geometry" />
        </mxCell>
        <mxCell id="W7nRIWuPNDp_MP-GWuMY-357" value="PrescrizioneEsameSpecialistici" style="shape=rhombus;perimeter=rhombusPerimeter;whiteSpace=wrap;html=1;align=center;" parent="1" vertex="1">
          <mxGeometry x="-3274" y="355" width="257.62" height="60" as="geometry" />
        </mxCell>
        <mxCell id="W7nRIWuPNDp_MP-GWuMY-359" value="" style="endArrow=none;html=1;rounded=0;fontFamily=Helvetica;fontSize=12;fontColor=default;exitX=0.5;exitY=0;exitDx=0;exitDy=0;entryX=0.036;entryY=0.5;entryDx=0;entryDy=0;entryPerimeter=0;" parent="1" source="W7nRIWuPNDp_MP-GWuMY-354" target="W7nRIWuPNDp_MP-GWuMY-360" edge="1">
          <mxGeometry width="50" height="50" relative="1" as="geometry">
            <mxPoint x="-2401.25" y="460" as="sourcePoint" />
            <mxPoint x="-2015" y="-351" as="targetPoint" />
            <Array as="points">
              <mxPoint x="-2816" y="-356" />
              <mxPoint x="-2481" y="-356" />
            </Array>
          </mxGeometry>
        </mxCell>
        <mxCell id="W7nRIWuPNDp_MP-GWuMY-360" value="PrescrizioneMedico" style="shape=rhombus;perimeter=rhombusPerimeter;whiteSpace=wrap;html=1;align=center;" parent="1" vertex="1">
          <mxGeometry x="-2018" y="-383" width="257.62" height="60" as="geometry" />
        </mxCell>
        <mxCell id="W7nRIWuPNDp_MP-GWuMY-361" value="" style="endArrow=none;html=1;rounded=0;fontSize=12;startSize=8;endSize=8;curved=1;" parent="1" edge="1">
          <mxGeometry relative="1" as="geometry">
            <mxPoint x="-1763" y="-353.41999999999996" as="sourcePoint" />
            <mxPoint x="-1540" y="-353" as="targetPoint" />
          </mxGeometry>
        </mxCell>
        <mxCell id="W7nRIWuPNDp_MP-GWuMY-363" value="" style="endArrow=none;html=1;rounded=0;" parent="1" edge="1">
          <mxGeometry relative="1" as="geometry">
            <mxPoint x="-1240.35" y="6" as="sourcePoint" />
            <mxPoint x="-1387.5" y="-116" as="targetPoint" />
            <Array as="points">
              <mxPoint x="-1240.35" y="-116" />
            </Array>
          </mxGeometry>
        </mxCell>
        <mxCell id="W7nRIWuPNDp_MP-GWuMY-364" value="" style="ellipse;whiteSpace=wrap;html=1;aspect=fixed;strokeColor=#000000;fillColor=#000000;" parent="1" vertex="1">
          <mxGeometry x="-1397.5" y="-123" width="13" height="13" as="geometry" />
        </mxCell>
        <mxCell id="W7nRIWuPNDp_MP-GWuMY-367" value="(1, 1)" style="text;html=1;align=center;verticalAlign=middle;whiteSpace=wrap;rounded=0;fontFamily=Helvetica;fontSize=12;fontColor=default;" parent="1" vertex="1">
          <mxGeometry x="-1417" y="-255" width="42" height="23" as="geometry" />
        </mxCell>
        <mxCell id="W7nRIWuPNDp_MP-GWuMY-368" value="(1, N)" style="text;html=1;align=center;verticalAlign=middle;whiteSpace=wrap;rounded=0;fontFamily=Helvetica;fontSize=12;fontColor=default;" parent="1" vertex="1">
          <mxGeometry x="-1417" y="-174" width="42" height="23" as="geometry" />
        </mxCell>
        <mxCell id="W7nRIWuPNDp_MP-GWuMY-369" value="(1, 1)" style="text;html=1;align=center;verticalAlign=middle;whiteSpace=wrap;rounded=0;fontFamily=Helvetica;fontSize=12;fontColor=default;" parent="1" vertex="1">
          <mxGeometry x="-1201" y="-82" width="42" height="23" as="geometry" />
        </mxCell>
        <mxCell id="W7nRIWuPNDp_MP-GWuMY-370" value="(1, N)" style="text;html=1;align=center;verticalAlign=middle;whiteSpace=wrap;rounded=0;fontFamily=Helvetica;fontSize=12;fontColor=default;" parent="1" vertex="1">
          <mxGeometry x="-921" y="-82" width="42" height="23" as="geometry" />
        </mxCell>
        <mxCell id="W7nRIWuPNDp_MP-GWuMY-371" value="(0, N)" style="text;html=1;align=center;verticalAlign=middle;whiteSpace=wrap;rounded=0;fontFamily=Helvetica;fontSize=12;fontColor=default;" parent="1" vertex="1">
          <mxGeometry x="-1413.25" y="44" width="42" height="23" as="geometry" />
        </mxCell>
        <mxCell id="W7nRIWuPNDp_MP-GWuMY-372" value="(1, 1)" style="text;html=1;align=center;verticalAlign=middle;whiteSpace=wrap;rounded=0;fontFamily=Helvetica;fontSize=12;fontColor=default;" parent="1" vertex="1">
          <mxGeometry x="-1415" y="127" width="42" height="23" as="geometry" />
        </mxCell>
        <mxCell id="W7nRIWuPNDp_MP-GWuMY-373" value="&lt;p style=&quot;margin: 0px 0px 0px 72px; text-indent: -72px; font-stretch: normal; line-height: normal; font-family: Times;&quot;&gt;OrarioVisita&lt;/p&gt;" style="ellipse;whiteSpace=wrap;html=1;align=center;" parent="1" vertex="1">
          <mxGeometry x="-1603" y="-155" width="100" height="28" as="geometry" />
        </mxCell>
        <mxCell id="W7nRIWuPNDp_MP-GWuMY-374" value="" style="endArrow=none;html=1;rounded=0;fontSize=12;startSize=8;endSize=8;curved=1;entryX=1;entryY=0;entryDx=0;entryDy=0;" parent="1" source="W7nRIWuPNDp_MP-GWuMY-141" edge="1">
          <mxGeometry relative="1" as="geometry">
            <mxPoint x="-1431" y="-193" as="sourcePoint" />
            <mxPoint x="-1529" y="-129" as="targetPoint" />
          </mxGeometry>
        </mxCell>
        <mxCell id="W7nRIWuPNDp_MP-GWuMY-375" value="&lt;p style=&quot;margin: 0px 0px 0px 72px; text-indent: -72px; font-stretch: normal; line-height: normal; font-family: Times;&quot;&gt;NumeroTelefono&lt;/p&gt;" style="ellipse;whiteSpace=wrap;html=1;align=center;" parent="1" vertex="1">
          <mxGeometry x="-1689" y="-5" width="113" height="28" as="geometry" />
        </mxCell>
        <mxCell id="W7nRIWuPNDp_MP-GWuMY-376" value="" style="endArrow=none;html=1;rounded=0;fontSize=12;startSize=8;endSize=8;curved=1;entryX=1;entryY=0;entryDx=0;entryDy=0;exitX=0.134;exitY=1;exitDx=0;exitDy=0;exitPerimeter=0;" parent="1" source="W7nRIWuPNDp_MP-GWuMY-141" target="W7nRIWuPNDp_MP-GWuMY-375" edge="1">
          <mxGeometry relative="1" as="geometry">
            <mxPoint x="-1499" y="57" as="sourcePoint" />
            <mxPoint x="-1564" y="16" as="targetPoint" />
          </mxGeometry>
        </mxCell>
        <mxCell id="W7nRIWuPNDp_MP-GWuMY-382" value="&lt;p style=&quot;margin: 0px 0px 0px 72px; text-indent: -72px; font-stretch: normal; line-height: normal; font-family: Times;&quot;&gt;&lt;b&gt;NumeroStanza&lt;/b&gt;&lt;/p&gt;" style="ellipse;whiteSpace=wrap;html=1;align=center;fontStyle=4;" parent="1" vertex="1">
          <mxGeometry x="-964" y="300" width="123" height="32" as="geometry" />
        </mxCell>
        <mxCell id="W7nRIWuPNDp_MP-GWuMY-383" value="(1, 1)" style="text;html=1;align=center;verticalAlign=middle;whiteSpace=wrap;rounded=0;fontFamily=Helvetica;fontSize=12;fontColor=default;" parent="1" vertex="1">
          <mxGeometry x="-666" y="638.5" width="42" height="23" as="geometry" />
        </mxCell>
        <mxCell id="W7nRIWuPNDp_MP-GWuMY-386" value="(1, 1)" style="text;html=1;align=center;verticalAlign=middle;whiteSpace=wrap;rounded=0;fontFamily=Helvetica;fontSize=12;fontColor=default;" parent="1" vertex="1">
          <mxGeometry x="-835" y="701.0000000000001" width="42" height="23" as="geometry" />
        </mxCell>
        <mxCell id="W7nRIWuPNDp_MP-GWuMY-387" value="(0, 2)" style="text;html=1;align=center;verticalAlign=middle;whiteSpace=wrap;rounded=0;fontFamily=Helvetica;fontSize=12;fontColor=default;" parent="1" vertex="1">
          <mxGeometry x="-1619.77" y="-320.5" width="42" height="23" as="geometry" />
        </mxCell>
        <mxCell id="W7nRIWuPNDp_MP-GWuMY-389" value="OccupazioneLetti" style="ellipse;whiteSpace=wrap;html=1;align=center;" parent="1" vertex="1">
          <mxGeometry x="-523" y="304" width="122" height="28" as="geometry" />
        </mxCell>
        <mxCell id="W7nRIWuPNDp_MP-GWuMY-390" value="" style="endArrow=none;html=1;rounded=0;fontSize=12;startSize=8;endSize=8;curved=1;exitX=1;exitY=0;exitDx=0;exitDy=0;entryX=0.406;entryY=1.066;entryDx=0;entryDy=0;entryPerimeter=0;" parent="1" edge="1">
          <mxGeometry relative="1" as="geometry">
            <mxPoint x="-541.38" y="214.51" as="sourcePoint" />
            <mxPoint x="-518.2800000000001" y="199.49799999999993" as="targetPoint" />
          </mxGeometry>
        </mxCell>
        <mxCell id="W7nRIWuPNDp_MP-GWuMY-391" value="(0, 1)" style="text;html=1;align=center;verticalAlign=middle;whiteSpace=wrap;rounded=0;fontFamily=Helvetica;fontSize=12;fontColor=default;" parent="1" vertex="1">
          <mxGeometry x="-523" y="275" width="42" height="23" as="geometry" />
        </mxCell>
        <mxCell id="W7nRIWuPNDp_MP-GWuMY-399" value="(1, 1)" style="text;html=1;align=center;verticalAlign=middle;whiteSpace=wrap;rounded=0;fontFamily=Helvetica;fontSize=12;fontColor=default;" parent="1" vertex="1">
          <mxGeometry x="-911.38" y="-388" width="42" height="23" as="geometry" />
        </mxCell>
        <mxCell id="W7nRIWuPNDp_MP-GWuMY-418" value="" style="endArrow=none;html=1;rounded=0;fontFamily=Helvetica;fontSize=12;fontColor=default;" parent="1" edge="1">
          <mxGeometry width="50" height="50" relative="1" as="geometry">
            <mxPoint x="-1227.0931116292504" y="232.68622325850083" as="sourcePoint" />
            <mxPoint x="-1228" y="234.5" as="targetPoint" />
            <Array as="points" />
          </mxGeometry>
        </mxCell>
        <mxCell id="W7nRIWuPNDp_MP-GWuMY-425" value="(0,N)" style="text;html=1;align=center;verticalAlign=middle;whiteSpace=wrap;rounded=0;fontFamily=Helvetica;fontSize=12;fontColor=default;" parent="1" vertex="1">
          <mxGeometry x="-556" y="170" width="42" height="23" as="geometry" />
        </mxCell>
        <mxCell id="W7nRIWuPNDp_MP-GWuMY-428" value="LaboratorioDelReparto" style="shape=rhombus;perimeter=rhombusPerimeter;whiteSpace=wrap;html=1;align=center;" parent="1" vertex="1">
          <mxGeometry x="-1545" y="69" width="257.62" height="60" as="geometry" />
        </mxCell>
        <mxCell id="W7nRIWuPNDp_MP-GWuMY-429" value="" style="endArrow=none;html=1;rounded=0;fontSize=12;startSize=8;endSize=8;curved=1;exitX=0.633;exitY=-0.002;exitDx=0;exitDy=0;exitPerimeter=0;" parent="1" edge="1">
          <mxGeometry relative="1" as="geometry">
            <mxPoint x="-2450.4649999999997" y="565.7540000000004" as="sourcePoint" />
            <mxPoint x="-2462" y="693" as="targetPoint" />
          </mxGeometry>
        </mxCell>
        <mxCell id="W7nRIWuPNDp_MP-GWuMY-308" value="Urgenza" style="ellipse;whiteSpace=wrap;html=1;align=center;" parent="1" vertex="1">
          <mxGeometry x="-2515" y="693.75" width="105" height="28" as="geometry" />
        </mxCell>
        <mxCell id="W7nRIWuPNDp_MP-GWuMY-444" value="(0,N)" style="text;html=1;align=center;verticalAlign=middle;whiteSpace=wrap;rounded=0;fontFamily=Helvetica;fontSize=12;fontColor=default;" parent="1" vertex="1">
          <mxGeometry x="-3188" y="416" width="42" height="23" as="geometry" />
        </mxCell>
        <mxCell id="W7nRIWuPNDp_MP-GWuMY-445" value="&lt;p style=&quot;margin: 0px; font-stretch: normal; font-size: 14px; line-height: normal; font-family: &amp;quot;Times New Roman&amp;quot;;&quot;&gt;DescrizioneAvvertenze&lt;/p&gt;" style="ellipse;whiteSpace=wrap;html=1;align=center;" parent="1" vertex="1">
          <mxGeometry x="-3383" y="113" width="195" height="28" as="geometry" />
        </mxCell>
        <mxCell id="W7nRIWuPNDp_MP-GWuMY-449" value="(1, 1)" style="text;html=1;align=center;verticalAlign=middle;whiteSpace=wrap;rounded=0;fontFamily=Helvetica;fontSize=12;fontColor=default;" parent="1" vertex="1">
          <mxGeometry x="-2050.75" y="-383" width="42" height="23" as="geometry" />
        </mxCell>
        <mxCell id="W7nRIWuPNDp_MP-GWuMY-450" value="(0, N)" style="text;html=1;align=center;verticalAlign=middle;whiteSpace=wrap;rounded=0;fontFamily=Helvetica;fontSize=12;fontColor=default;" parent="1" vertex="1">
          <mxGeometry x="-1778" y="-386" width="42" height="23" as="geometry" />
        </mxCell>
        <mxCell id="W7nRIWuPNDp_MP-GWuMY-451" value="(1, 1)" style="text;html=1;align=center;verticalAlign=middle;whiteSpace=wrap;rounded=0;fontFamily=Helvetica;fontSize=12;fontColor=default;" parent="1" vertex="1">
          <mxGeometry x="-3191" y="332" width="42" height="23" as="geometry" />
        </mxCell>
        <mxCell id="W7nRIWuPNDp_MP-GWuMY-453" value="(0, N)" style="text;html=1;align=center;verticalAlign=middle;whiteSpace=wrap;rounded=0;fontFamily=Helvetica;fontSize=12;fontColor=default;" parent="1" vertex="1">
          <mxGeometry x="-2894" y="545" width="42" height="23" as="geometry" />
        </mxCell>
        <mxCell id="W7nRIWuPNDp_MP-GWuMY-454" value="(1,1)" style="text;html=1;align=center;verticalAlign=middle;whiteSpace=wrap;rounded=0;fontFamily=Helvetica;fontSize=12;fontColor=default;" parent="1" vertex="1">
          <mxGeometry x="-2691" y="542" width="42" height="23" as="geometry" />
        </mxCell>
        <mxCell id="W7nRIWuPNDp_MP-GWuMY-455" value="" style="endArrow=none;html=1;rounded=0;fontFamily=Helvetica;fontSize=12;fontColor=default;exitX=0.297;exitY=0.964;exitDx=0;exitDy=0;exitPerimeter=0;entryX=0.173;entryY=0.015;entryDx=0;entryDy=0;entryPerimeter=0;" parent="1" source="W7nRIWuPNDp_MP-GWuMY-288" edge="1">
          <mxGeometry width="50" height="50" relative="1" as="geometry">
            <mxPoint x="-3127.0035000000003" y="417.6479999999999" as="sourcePoint" />
            <mxPoint x="-3028.0845" y="498.9999999999998" as="targetPoint" />
          </mxGeometry>
        </mxCell>
        <mxCell id="W7nRIWuPNDp_MP-GWuMY-457" value="EsecuzioneEsame" style="shape=rhombus;perimeter=rhombusPerimeter;whiteSpace=wrap;html=1;align=center;" parent="1" vertex="1">
          <mxGeometry x="-2724" y="808" width="257.62" height="60" as="geometry" />
        </mxCell>
        <mxCell id="W7nRIWuPNDp_MP-GWuMY-463" value="(1,1)" style="text;html=1;align=center;verticalAlign=middle;whiteSpace=wrap;rounded=0;fontFamily=Helvetica;fontSize=12;fontColor=default;" parent="1" vertex="1">
          <mxGeometry x="-2471.25" y="412.75" width="42" height="23" as="geometry" />
        </mxCell>
        <mxCell id="W7nRIWuPNDp_MP-GWuMY-464" value="(0,N)" style="text;html=1;align=center;verticalAlign=middle;whiteSpace=wrap;rounded=0;fontFamily=Helvetica;fontSize=12;fontColor=default;" parent="1" vertex="1">
          <mxGeometry x="-2479" y="330" width="42" height="23" as="geometry" />
        </mxCell>
        <mxCell id="W7nRIWuPNDp_MP-GWuMY-467" value="(0,2)" style="text;html=1;align=center;verticalAlign=middle;whiteSpace=wrap;rounded=0;fontFamily=Helvetica;fontSize=12;fontColor=default;" parent="1" vertex="1">
          <mxGeometry x="-2457.13" y="670.75" width="42" height="23" as="geometry" />
        </mxCell>
        <mxCell id="W7nRIWuPNDp_MP-GWuMY-472" value="" style="endArrow=none;html=1;rounded=0;fontFamily=Helvetica;fontSize=12;fontColor=default;exitX=0;exitY=0.5;exitDx=0;exitDy=0;" parent="1" source="GauCotrHvnYONBWAEDi9-2" edge="1">
          <mxGeometry width="50" height="50" relative="1" as="geometry">
            <mxPoint x="-2841" y="-13.5" as="sourcePoint" />
            <mxPoint x="-2841" y="-102.5" as="targetPoint" />
          </mxGeometry>
        </mxCell>
        <mxCell id="W7nRIWuPNDp_MP-GWuMY-473" value="DataDimissione" style="ellipse;whiteSpace=wrap;html=1;align=center;" parent="1" vertex="1">
          <mxGeometry x="-2894" y="-130.5" width="114" height="28" as="geometry" />
        </mxCell>
        <mxCell id="W7nRIWuPNDp_MP-GWuMY-474" value="Patologie" style="ellipse;whiteSpace=wrap;html=1;align=center;" parent="1" vertex="1">
          <mxGeometry x="-2401.75" y="-162" width="100" height="28" as="geometry" />
        </mxCell>
        <mxCell id="W7nRIWuPNDp_MP-GWuMY-476" value="" style="endArrow=none;html=1;rounded=0;fontFamily=Helvetica;fontSize=12;fontColor=default;entryX=0.433;entryY=1;entryDx=0;entryDy=0;entryPerimeter=0;exitX=0.133;exitY=-0.004;exitDx=0;exitDy=0;exitPerimeter=0;" parent="1" source="W7nRIWuPNDp_MP-GWuMY-228" target="W7nRIWuPNDp_MP-GWuMY-474" edge="1">
          <mxGeometry width="50" height="50" relative="1" as="geometry">
            <mxPoint x="-2320.625" y="-97" as="sourcePoint" />
            <mxPoint x="-2281" y="-159" as="targetPoint" />
          </mxGeometry>
        </mxCell>
        <mxCell id="W7nRIWuPNDp_MP-GWuMY-479" value="(1, 1)" style="text;html=1;align=center;verticalAlign=middle;whiteSpace=wrap;rounded=0;fontFamily=Helvetica;fontSize=12;fontColor=default;" parent="1" vertex="1">
          <mxGeometry x="-1981.5" y="-88" width="42" height="23" as="geometry" />
        </mxCell>
        <mxCell id="W7nRIWuPNDp_MP-GWuMY-480" value="(0, N)" style="text;html=1;align=center;verticalAlign=middle;whiteSpace=wrap;rounded=0;fontFamily=Helvetica;fontSize=12;fontColor=default;" parent="1" vertex="1">
          <mxGeometry x="-1696" y="-85" width="42" height="23" as="geometry" />
        </mxCell>
        <mxCell id="PDs4ldswSS4VjeUQPrsG-1" value="ServizioProntoSoccorso" style="ellipse;whiteSpace=wrap;html=1;align=center;" parent="1" vertex="1">
          <mxGeometry x="-602" y="-163" width="188" height="28" as="geometry" />
        </mxCell>
        <mxCell id="PDs4ldswSS4VjeUQPrsG-6" value="" style="endArrow=none;html=1;rounded=0;fontFamily=Helvetica;fontSize=12;fontColor=default;entryX=1;entryY=0.5;entryDx=0;entryDy=0;" parent="1" target="W7nRIWuPNDp_MP-GWuMY-457" edge="1">
          <mxGeometry width="50" height="50" relative="1" as="geometry">
            <mxPoint x="-1775" y="249" as="sourcePoint" />
            <mxPoint x="-2061" y="1184" as="targetPoint" />
            <Array as="points">
              <mxPoint x="-1985" y="437" />
              <mxPoint x="-1981" y="838" />
            </Array>
          </mxGeometry>
        </mxCell>
        <mxCell id="PDs4ldswSS4VjeUQPrsG-7" value="&lt;p style=&quot;margin: 0px 0px 0px 72px; text-indent: -72px; font-stretch: normal; line-height: normal; font-family: Times;&quot;&gt;&lt;b&gt;DataEsame&lt;/b&gt;&lt;/p&gt;" style="ellipse;whiteSpace=wrap;html=1;align=center;fontStyle=4;" parent="1" vertex="1">
          <mxGeometry x="-2691" y="389" width="117" height="38" as="geometry" />
        </mxCell>
        <mxCell id="PDs4ldswSS4VjeUQPrsG-8" value="" style="endArrow=none;html=1;rounded=0;fontSize=12;startSize=8;endSize=8;curved=1;entryX=0.872;entryY=0.994;entryDx=0;entryDy=0;entryPerimeter=0;exitX=0.352;exitY=0.06;exitDx=0;exitDy=0;exitPerimeter=0;" parent="1" target="W7nRIWuPNDp_MP-GWuMY-273" edge="1">
          <mxGeometry relative="1" as="geometry">
            <mxPoint x="-2288.296" y="688.6799999999998" as="sourcePoint" />
            <mxPoint x="-2296.002" y="559.8699999999998" as="targetPoint" />
          </mxGeometry>
        </mxCell>
        <mxCell id="PDs4ldswSS4VjeUQPrsG-9" value="(0, N)" style="text;html=1;align=center;verticalAlign=middle;whiteSpace=wrap;rounded=0;fontFamily=Helvetica;fontSize=12;fontColor=default;" parent="1" vertex="1">
          <mxGeometry x="-2757.44" y="808" width="42" height="23" as="geometry" />
        </mxCell>
        <mxCell id="PDs4ldswSS4VjeUQPrsG-10" value="(0, N)" style="text;html=1;align=center;verticalAlign=middle;whiteSpace=wrap;rounded=0;fontFamily=Helvetica;fontSize=12;fontColor=default;" parent="1" vertex="1">
          <mxGeometry x="-2452" y="808" width="42" height="23" as="geometry" />
        </mxCell>
        <mxCell id="PDs4ldswSS4VjeUQPrsG-16" value="" style="endArrow=none;html=1;rounded=0;fontFamily=Helvetica;fontSize=12;fontColor=default;exitX=0;exitY=0.5;exitDx=0;exitDy=0;entryX=0.5;entryY=1;entryDx=0;entryDy=0;" parent="1" source="W7nRIWuPNDp_MP-GWuMY-457" target="W7nRIWuPNDp_MP-GWuMY-356" edge="1">
          <mxGeometry width="50" height="50" relative="1" as="geometry">
            <mxPoint x="-3068.5" y="742.3899999999999" as="sourcePoint" />
            <mxPoint x="-2998" y="567" as="targetPoint" />
            <Array as="points">
              <mxPoint x="-3139" y="842" />
            </Array>
          </mxGeometry>
        </mxCell>
        <mxCell id="PDs4ldswSS4VjeUQPrsG-19" value="" style="endArrow=none;html=1;rounded=0;fontFamily=Helvetica;fontSize=12;fontColor=default;exitX=1;exitY=0.25;exitDx=0;exitDy=0;entryX=0;entryY=0.5;entryDx=0;entryDy=0;" parent="1" source="W7nRIWuPNDp_MP-GWuMY-356" target="W7nRIWuPNDp_MP-GWuMY-287" edge="1">
          <mxGeometry width="50" height="50" relative="1" as="geometry">
            <mxPoint x="-3249" y="451" as="sourcePoint" />
            <mxPoint x="-3318" y="470" as="targetPoint" />
          </mxGeometry>
        </mxCell>
        <mxCell id="II6c7V7IzE4FUZW3vnJS-11" value="" style="endArrow=none;html=1;rounded=0;fontSize=12;startSize=8;endSize=8;curved=1;entryX=0.5;entryY=1;entryDx=0;entryDy=0;exitX=1;exitY=0.75;exitDx=0;exitDy=0;" parent="1" source="4cvkdfEpKLJkki14Cyws-166" edge="1">
          <mxGeometry relative="1" as="geometry">
            <mxPoint x="-1062.27" y="-475" as="sourcePoint" />
            <mxPoint x="-1054.77" y="-774" as="targetPoint" />
          </mxGeometry>
        </mxCell>
        <mxCell id="II6c7V7IzE4FUZW3vnJS-12" value="(1,1)" style="text;html=1;align=center;verticalAlign=middle;whiteSpace=wrap;rounded=0;fontFamily=Helvetica;fontSize=12;fontColor=default;" parent="1" vertex="1">
          <mxGeometry x="-1664.79" y="-926" width="42" height="23" as="geometry" />
        </mxCell>
        <mxCell id="II6c7V7IzE4FUZW3vnJS-14" value="(0,N)" style="text;html=1;align=center;verticalAlign=middle;whiteSpace=wrap;rounded=0;fontFamily=Helvetica;fontSize=12;fontColor=default;" parent="1" vertex="1">
          <mxGeometry x="-1647.04" y="-847" width="42" height="23" as="geometry" />
        </mxCell>
        <mxCell id="II6c7V7IzE4FUZW3vnJS-15" value="(0,N)" style="text;html=1;align=center;verticalAlign=middle;whiteSpace=wrap;rounded=0;fontFamily=Helvetica;fontSize=12;fontColor=default;" parent="1" vertex="1">
          <mxGeometry x="-1231.27" y="-851" width="42" height="23" as="geometry" />
        </mxCell>
        <mxCell id="II6c7V7IzE4FUZW3vnJS-22" value="" style="endArrow=none;html=1;rounded=0;entryX=0.5;entryY=0;entryDx=0;entryDy=0;" parent="1" target="7t4nWd9apjva3gbMSkxa-22" edge="1" source="W7nRIWuPNDp_MP-GWuMY-123">
          <mxGeometry relative="1" as="geometry">
            <mxPoint x="-1718" y="732.5" as="sourcePoint" />
            <mxPoint x="-1662.099950738916" y="801" as="targetPoint" />
          </mxGeometry>
        </mxCell>
        <mxCell id="II6c7V7IzE4FUZW3vnJS-23" value="&lt;p style=&quot;margin: 0px 0px 0px 72px; text-indent: -72px; font-stretch: normal; line-height: normal; font-family: Times;&quot;&gt;&lt;b&gt;NumeroTelefono&lt;/b&gt;&lt;/p&gt;" style="ellipse;whiteSpace=wrap;html=1;align=center;fontStyle=4;" parent="1" vertex="1">
          <mxGeometry x="-1775" y="542" width="117" height="38" as="geometry" />
        </mxCell>
        <mxCell id="II6c7V7IzE4FUZW3vnJS-26" value="StanzaRicovero" style="shape=rhombus;perimeter=rhombusPerimeter;whiteSpace=wrap;html=1;align=center;" parent="1" vertex="1">
          <mxGeometry x="-1173.5" y="209" width="257.62" height="60" as="geometry" />
        </mxCell>
        <mxCell id="II6c7V7IzE4FUZW3vnJS-28" value="" style="endArrow=none;html=1;rounded=0;entryX=0;entryY=0.5;entryDx=0;entryDy=0;" parent="1" target="II6c7V7IzE4FUZW3vnJS-26" edge="1">
          <mxGeometry width="50" height="50" relative="1" as="geometry">
            <mxPoint x="-1287.38" y="-22" as="sourcePoint" />
            <mxPoint x="-1172" y="151" as="targetPoint" />
          </mxGeometry>
        </mxCell>
        <mxCell id="II6c7V7IzE4FUZW3vnJS-29" value="" style="endArrow=none;html=1;rounded=0;" parent="1" edge="1">
          <mxGeometry width="50" height="50" relative="1" as="geometry">
            <mxPoint x="-918.0000000000001" y="239" as="sourcePoint" />
            <mxPoint x="-795" y="239" as="targetPoint" />
          </mxGeometry>
        </mxCell>
        <mxCell id="II6c7V7IzE4FUZW3vnJS-30" value="(0, N)" style="text;html=1;align=center;verticalAlign=middle;whiteSpace=wrap;rounded=0;fontFamily=Helvetica;fontSize=12;fontColor=default;" parent="1" vertex="1">
          <mxGeometry x="-1173.5" y="195" width="42" height="23" as="geometry" />
        </mxCell>
        <mxCell id="II6c7V7IzE4FUZW3vnJS-31" value="(1, 1)" style="text;html=1;align=center;verticalAlign=middle;whiteSpace=wrap;rounded=0;fontFamily=Helvetica;fontSize=12;fontColor=default;" parent="1" vertex="1">
          <mxGeometry x="-921" y="209" width="42" height="23" as="geometry" />
        </mxCell>
        <mxCell id="II6c7V7IzE4FUZW3vnJS-32" value="" style="endArrow=none;html=1;rounded=0;" parent="1" source="II6c7V7IzE4FUZW3vnJS-33" edge="1">
          <mxGeometry width="50" height="50" relative="1" as="geometry">
            <mxPoint x="-817" y="331" as="sourcePoint" />
            <mxPoint x="-817" y="195" as="targetPoint" />
          </mxGeometry>
        </mxCell>
        <mxCell id="II6c7V7IzE4FUZW3vnJS-34" value="" style="endArrow=none;html=1;rounded=0;" parent="1" target="II6c7V7IzE4FUZW3vnJS-33" edge="1">
          <mxGeometry width="50" height="50" relative="1" as="geometry">
            <mxPoint x="-817" y="331" as="sourcePoint" />
            <mxPoint x="-817" y="195" as="targetPoint" />
          </mxGeometry>
        </mxCell>
        <mxCell id="II6c7V7IzE4FUZW3vnJS-33" value="" style="ellipse;whiteSpace=wrap;html=1;aspect=fixed;strokeColor=#000000;fillColor=#000000;" parent="1" vertex="1">
          <mxGeometry x="-824.62" y="187" width="13" height="13" as="geometry" />
        </mxCell>
        <mxCell id="GauCotrHvnYONBWAEDi9-1" value="" style="endArrow=none;html=1;rounded=0;" parent="1" edge="1" source="II6c7V7IzE4FUZW3vnJS-25">
          <mxGeometry width="50" height="50" relative="1" as="geometry">
            <mxPoint x="-1595" y="639" as="sourcePoint" />
            <mxPoint x="-1302" y="638.5" as="targetPoint" />
            <Array as="points" />
          </mxGeometry>
        </mxCell>
        <mxCell id="GauCotrHvnYONBWAEDi9-2" value="PazienteDimesso" style="rounded=1;arcSize=10;whiteSpace=wrap;html=1;align=center;" parent="1" vertex="1">
          <mxGeometry x="-2753.25" y="-97" width="253.5" height="66" as="geometry" />
        </mxCell>
        <mxCell id="GauCotrHvnYONBWAEDi9-6" value="" style="endArrow=none;html=1;rounded=0;exitX=0.5;exitY=1;exitDx=0;exitDy=0;entryX=0.598;entryY=1.025;entryDx=0;entryDy=0;entryPerimeter=0;" parent="1" source="GauCotrHvnYONBWAEDi9-2" edge="1">
          <mxGeometry width="50" height="50" relative="1" as="geometry">
            <mxPoint x="-2545" y="82" as="sourcePoint" />
            <mxPoint x="-2232.407" y="-29.34999999999991" as="targetPoint" />
            <Array as="points">
              <mxPoint x="-2626" y="88" />
              <mxPoint x="-2232" y="88" />
            </Array>
          </mxGeometry>
        </mxCell>
        <mxCell id="GauCotrHvnYONBWAEDi9-7" value="" style="endArrow=none;html=1;rounded=0;fontSize=12;startSize=8;endSize=8;curved=1;entryX=0;entryY=0.5;entryDx=0;entryDy=0;" parent="1" target="W7nRIWuPNDp_MP-GWuMY-349" edge="1">
          <mxGeometry relative="1" as="geometry">
            <mxPoint x="-2102.5" y="-55.25999999999999" as="sourcePoint" />
            <mxPoint x="-1963.87" y="-55.59" as="targetPoint" />
          </mxGeometry>
        </mxCell>
        <mxCell id="GauCotrHvnYONBWAEDi9-8" value="" style="endArrow=none;html=1;rounded=0;" parent="1" edge="1">
          <mxGeometry width="50" height="50" relative="1" as="geometry">
            <mxPoint x="-2198" y="13" as="sourcePoint" />
            <mxPoint x="-2072" y="-141" as="targetPoint" />
            <Array as="points">
              <mxPoint x="-2069" y="13" />
            </Array>
          </mxGeometry>
        </mxCell>
        <mxCell id="GauCotrHvnYONBWAEDi9-9" value="" style="ellipse;whiteSpace=wrap;html=1;aspect=fixed;strokeColor=#000000;fillColor=#000000;" parent="1" vertex="1">
          <mxGeometry x="-2078" y="-154.5" width="13" height="13" as="geometry" />
        </mxCell>
        <mxCell id="GauCotrHvnYONBWAEDi9-10" value="" style="shape=flexArrow;endArrow=classic;html=1;rounded=0;" parent="1" edge="1">
          <mxGeometry width="50" height="50" relative="1" as="geometry">
            <mxPoint x="-2432" y="94" as="sourcePoint" />
            <mxPoint x="-2431.96" y="200" as="targetPoint" />
          </mxGeometry>
        </mxCell>
        <mxCell id="GauCotrHvnYONBWAEDi9-11" value="Dimesso" style="shape=rhombus;perimeter=rhombusPerimeter;whiteSpace=wrap;html=1;align=center;" parent="1" vertex="1">
          <mxGeometry x="-2559.37" y="-283" width="257.62" height="60" as="geometry" />
        </mxCell>
        <mxCell id="LGfzdt7W1__ugreYTyY4-2" value="" style="endArrow=none;html=1;rounded=0;entryX=0;entryY=0.5;entryDx=0;entryDy=0;" parent="1" target="GauCotrHvnYONBWAEDi9-11" edge="1">
          <mxGeometry width="50" height="50" relative="1" as="geometry">
            <mxPoint x="-2630" y="-98" as="sourcePoint" />
            <mxPoint x="-2479" y="-309" as="targetPoint" />
            <Array as="points">
              <mxPoint x="-2630" y="-252" />
            </Array>
          </mxGeometry>
        </mxCell>
        <mxCell id="LGfzdt7W1__ugreYTyY4-3" value="" style="endArrow=none;html=1;rounded=0;entryX=1;entryY=0.5;entryDx=0;entryDy=0;exitX=0.5;exitY=0;exitDx=0;exitDy=0;" parent="1" source="W7nRIWuPNDp_MP-GWuMY-228" target="GauCotrHvnYONBWAEDi9-11" edge="1">
          <mxGeometry width="50" height="50" relative="1" as="geometry">
            <mxPoint x="-2093" y="-97" as="sourcePoint" />
            <mxPoint x="-2029" y="-241.5" as="targetPoint" />
            <Array as="points">
              <mxPoint x="-2229" y="-253" />
            </Array>
          </mxGeometry>
        </mxCell>
        <mxCell id="LGfzdt7W1__ugreYTyY4-4" value="" style="endArrow=none;html=1;rounded=0;" parent="1" source="LGfzdt7W1__ugreYTyY4-5" edge="1">
          <mxGeometry width="50" height="50" relative="1" as="geometry">
            <mxPoint x="-2691" y="-142" as="sourcePoint" />
            <mxPoint x="-2557" y="-142" as="targetPoint" />
          </mxGeometry>
        </mxCell>
        <mxCell id="LGfzdt7W1__ugreYTyY4-7" value="" style="endArrow=none;html=1;rounded=0;" parent="1" target="LGfzdt7W1__ugreYTyY4-5" edge="1">
          <mxGeometry width="50" height="50" relative="1" as="geometry">
            <mxPoint x="-2691" y="-142" as="sourcePoint" />
            <mxPoint x="-2557" y="-142" as="targetPoint" />
          </mxGeometry>
        </mxCell>
        <mxCell id="LGfzdt7W1__ugreYTyY4-5" value="" style="ellipse;whiteSpace=wrap;html=1;aspect=fixed;strokeColor=#000000;fillColor=#000000;" parent="1" vertex="1">
          <mxGeometry x="-2560.06" y="-148" width="13" height="13" as="geometry" />
        </mxCell>
        <mxCell id="LGfzdt7W1__ugreYTyY4-8" value="(1,1)" style="text;html=1;align=center;verticalAlign=middle;whiteSpace=wrap;rounded=0;fontFamily=Helvetica;fontSize=12;fontColor=default;" parent="1" vertex="1">
          <mxGeometry x="-2587" y="-286" width="42" height="23" as="geometry" />
        </mxCell>
        <mxCell id="LGfzdt7W1__ugreYTyY4-9" value="(1,1)" style="text;html=1;align=center;verticalAlign=middle;whiteSpace=wrap;rounded=0;fontFamily=Helvetica;fontSize=12;fontColor=default;" parent="1" vertex="1">
          <mxGeometry x="-2309.38" y="-281" width="42" height="23" as="geometry" />
        </mxCell>
        <mxCell id="LGfzdt7W1__ugreYTyY4-20" value="" style="endArrow=none;html=1;rounded=0;" parent="1" edge="1">
          <mxGeometry width="50" height="50" relative="1" as="geometry">
            <mxPoint x="-3226" y="177" as="sourcePoint" />
            <mxPoint x="-3246" y="308" as="targetPoint" />
            <Array as="points">
              <mxPoint x="-2973" y="177" />
              <mxPoint x="-2973" y="308" />
            </Array>
          </mxGeometry>
        </mxCell>
        <mxCell id="LGfzdt7W1__ugreYTyY4-19" value="" style="ellipse;whiteSpace=wrap;html=1;aspect=fixed;strokeColor=#000000;fillColor=#000000;" parent="1" vertex="1">
          <mxGeometry x="-3239" y="168" width="13" height="13" as="geometry" />
        </mxCell>
        <mxCell id="LGfzdt7W1__ugreYTyY4-28" value="" style="endArrow=none;html=1;rounded=0;entryX=0.5;entryY=0;entryDx=0;entryDy=0;" parent="1" target="W7nRIWuPNDp_MP-GWuMY-284" edge="1">
          <mxGeometry width="50" height="50" relative="1" as="geometry">
            <mxPoint x="-2575" y="587" as="sourcePoint" />
            <mxPoint x="-2191" y="469" as="targetPoint" />
            <Array as="points">
              <mxPoint x="-2575" y="469" />
              <mxPoint x="-2265" y="469" />
            </Array>
          </mxGeometry>
        </mxCell>
        <mxCell id="LGfzdt7W1__ugreYTyY4-29" value="" style="endArrow=none;html=1;rounded=0;exitX=1;exitY=0.5;exitDx=0;exitDy=0;" parent="1" source="W7nRIWuPNDp_MP-GWuMY-273" edge="1">
          <mxGeometry width="50" height="50" relative="1" as="geometry">
            <mxPoint x="-2161" y="518" as="sourcePoint" />
            <mxPoint x="-2041" y="267" as="targetPoint" />
            <Array as="points">
              <mxPoint x="-2041" y="533" />
            </Array>
          </mxGeometry>
        </mxCell>
        <mxCell id="LGfzdt7W1__ugreYTyY4-32" value="PrenotazioneEsame" style="shape=rhombus;perimeter=rhombusPerimeter;whiteSpace=wrap;html=1;align=center;" parent="1" vertex="1">
          <mxGeometry x="-2170" y="207" width="257.62" height="60" as="geometry" />
        </mxCell>
        <mxCell id="LGfzdt7W1__ugreYTyY4-33" value="" style="endArrow=none;html=1;rounded=0;entryX=0;entryY=0.5;entryDx=0;entryDy=0;" parent="1" target="W7nRIWuPNDp_MP-GWuMY-123" edge="1">
          <mxGeometry width="50" height="50" relative="1" as="geometry">
            <mxPoint x="-1912.38" y="237" as="sourcePoint" />
            <mxPoint x="-1862.38" y="187" as="targetPoint" />
          </mxGeometry>
        </mxCell>
        <mxCell id="7t4nWd9apjva3gbMSkxa-2" value="(1, 1)" style="text;html=1;align=center;verticalAlign=middle;whiteSpace=wrap;rounded=0;fontFamily=Helvetica;fontSize=12;fontColor=default;" parent="1" vertex="1">
          <mxGeometry x="-2092.5" y="277" width="42" height="23" as="geometry" />
        </mxCell>
        <mxCell id="7t4nWd9apjva3gbMSkxa-3" value="(0, N)" style="text;html=1;align=center;verticalAlign=middle;whiteSpace=wrap;rounded=0;fontFamily=Helvetica;fontSize=12;fontColor=default;" parent="1" vertex="1">
          <mxGeometry x="-1927" y="202" width="42" height="23" as="geometry" />
        </mxCell>
        <mxCell id="7t4nWd9apjva3gbMSkxa-9" value="" style="endArrow=none;html=1;rounded=0;fontSize=12;startSize=8;endSize=8;curved=1;exitX=0.134;exitY=1;exitDx=0;exitDy=0;exitPerimeter=0;" parent="1" edge="1">
          <mxGeometry relative="1" as="geometry">
            <mxPoint x="-1440.75" y="-21" as="sourcePoint" />
            <mxPoint x="-1518" y="38" as="targetPoint" />
          </mxGeometry>
        </mxCell>
        <mxCell id="7t4nWd9apjva3gbMSkxa-10" value="&lt;p style=&quot;margin: 0px 0px 0px 72px; text-indent: -72px; font-stretch: normal; line-height: normal; font-family: Times;&quot;&gt;SaleOperatorie&lt;/p&gt;" style="ellipse;whiteSpace=wrap;html=1;align=center;" parent="1" vertex="1">
          <mxGeometry x="-1606.52" y="36" width="113" height="28" as="geometry" />
        </mxCell>
        <mxCell id="7t4nWd9apjva3gbMSkxa-11" value="( 0,1 )" style="text;html=1;align=center;verticalAlign=middle;whiteSpace=wrap;rounded=0;fontFamily=Helvetica;fontSize=12;fontColor=default;" parent="1" vertex="1">
          <mxGeometry x="-1500" y="23" width="42" height="23" as="geometry" />
        </mxCell>
        <mxCell id="7t4nWd9apjva3gbMSkxa-18" value="" style="endArrow=none;html=1;rounded=0;exitX=0.5;exitY=0;exitDx=0;exitDy=0;entryX=0.75;entryY=1;entryDx=0;entryDy=0;" parent="1" source="7t4nWd9apjva3gbMSkxa-20" target="W7nRIWuPNDp_MP-GWuMY-123" edge="1">
          <mxGeometry width="50" height="50" relative="1" as="geometry">
            <mxPoint x="-1557.3600000000001" y="384" as="sourcePoint" />
            <mxPoint x="-1557.3600000000001" y="270" as="targetPoint" />
          </mxGeometry>
        </mxCell>
        <mxCell id="7t4nWd9apjva3gbMSkxa-19" value="LabTipoEsterno" style="shape=rhombus;perimeter=rhombusPerimeter;whiteSpace=wrap;html=1;align=center;" parent="1" vertex="1">
          <mxGeometry x="-1966" y="466.5" width="257.62" height="60" as="geometry" />
        </mxCell>
        <mxCell id="7t4nWd9apjva3gbMSkxa-20" value="LabTipoInterno" style="shape=rhombus;perimeter=rhombusPerimeter;whiteSpace=wrap;html=1;align=center;" parent="1" vertex="1">
          <mxGeometry x="-1689" y="466.5" width="257.62" height="60" as="geometry" />
        </mxCell>
        <mxCell id="7t4nWd9apjva3gbMSkxa-21" value="" style="endArrow=none;html=1;rounded=0;exitX=0.5;exitY=0;exitDx=0;exitDy=0;entryX=0.25;entryY=1;entryDx=0;entryDy=0;" parent="1" source="7t4nWd9apjva3gbMSkxa-19" target="W7nRIWuPNDp_MP-GWuMY-123" edge="1">
          <mxGeometry width="50" height="50" relative="1" as="geometry">
            <mxPoint x="-1805" y="509" as="sourcePoint" />
            <mxPoint x="-1862.3600000000001" y="270" as="targetPoint" />
          </mxGeometry>
        </mxCell>
        <mxCell id="7t4nWd9apjva3gbMSkxa-22" value="&lt;p style=&quot;margin: 0px 0px 0px 72px; text-indent: -72px; font-stretch: normal; line-height: normal; font-family: Times;&quot;&gt;&lt;b&gt;NomeLaboratorio&lt;/b&gt;&lt;/p&gt;" style="ellipse;whiteSpace=wrap;html=1;align=center;fontStyle=4;" parent="1" vertex="1">
          <mxGeometry x="-1815.5" y="87" width="117" height="38" as="geometry" />
        </mxCell>
        <mxCell id="7t4nWd9apjva3gbMSkxa-24" value="" style="endArrow=none;html=1;rounded=0;exitX=0.531;exitY=0.002;exitDx=0;exitDy=0;exitPerimeter=0;" parent="1" edge="1">
          <mxGeometry width="50" height="50" relative="1" as="geometry">
            <mxPoint x="-1837.7814999999996" y="666.6320000000001" as="sourcePoint" />
            <mxPoint x="-1837.75" y="526.5" as="targetPoint" />
          </mxGeometry>
        </mxCell>
        <mxCell id="7t4nWd9apjva3gbMSkxa-25" value="" style="endArrow=none;html=1;rounded=0;exitX=0.531;exitY=0.002;exitDx=0;exitDy=0;exitPerimeter=0;" parent="1" edge="1">
          <mxGeometry width="50" height="50" relative="1" as="geometry">
            <mxPoint x="-1560.4" y="666.5" as="sourcePoint" />
            <mxPoint x="-1560.7800000000002" y="526" as="targetPoint" />
          </mxGeometry>
        </mxCell>
        <mxCell id="4cvkdfEpKLJkki14Cyws-1" value="" style="endArrow=none;html=1;rounded=0;" edge="1" parent="1" target="II6c7V7IzE4FUZW3vnJS-25">
          <mxGeometry width="50" height="50" relative="1" as="geometry">
            <mxPoint x="-1476" y="639" as="sourcePoint" />
            <mxPoint x="-1302" y="638.5" as="targetPoint" />
            <Array as="points" />
          </mxGeometry>
        </mxCell>
        <mxCell id="4cvkdfEpKLJkki14Cyws-2" value="(0, 1)" style="text;html=1;align=center;verticalAlign=middle;whiteSpace=wrap;rounded=0;fontFamily=Helvetica;fontSize=12;fontColor=default;" vertex="1" parent="1">
          <mxGeometry x="-1558" y="431.75" width="42" height="23" as="geometry" />
        </mxCell>
        <mxCell id="4cvkdfEpKLJkki14Cyws-3" value="(0, 1)" style="text;html=1;align=center;verticalAlign=middle;whiteSpace=wrap;rounded=0;fontFamily=Helvetica;fontSize=12;fontColor=default;" vertex="1" parent="1">
          <mxGeometry x="-1812.38" y="443.5" width="42" height="23" as="geometry" />
        </mxCell>
        <mxCell id="4cvkdfEpKLJkki14Cyws-4" value="(1, 1)" style="text;html=1;align=center;verticalAlign=middle;whiteSpace=wrap;rounded=0;fontFamily=Helvetica;fontSize=12;fontColor=default;" vertex="1" parent="1">
          <mxGeometry x="-1825" y="540" width="42" height="23" as="geometry" />
        </mxCell>
        <mxCell id="4cvkdfEpKLJkki14Cyws-5" value="(1, 1)" style="text;html=1;align=center;verticalAlign=middle;whiteSpace=wrap;rounded=0;fontFamily=Helvetica;fontSize=12;fontColor=default;" vertex="1" parent="1">
          <mxGeometry x="-1551" y="537" width="42" height="23" as="geometry" />
        </mxCell>
        <mxCell id="4cvkdfEpKLJkki14Cyws-7" value="" style="endArrow=none;html=1;rounded=0;" edge="1" parent="1" target="II6c7V7IzE4FUZW3vnJS-25">
          <mxGeometry width="50" height="50" relative="1" as="geometry">
            <mxPoint x="-1595" y="639" as="sourcePoint" />
            <mxPoint x="-1302" y="638.5" as="targetPoint" />
            <Array as="points" />
          </mxGeometry>
        </mxCell>
        <mxCell id="II6c7V7IzE4FUZW3vnJS-25" value="" style="ellipse;whiteSpace=wrap;html=1;aspect=fixed;strokeColor=#000000;fillColor=#000000;" parent="1" vertex="1">
          <mxGeometry x="-1606.52" y="633" width="13" height="13" as="geometry" />
        </mxCell>
        <mxCell id="4cvkdfEpKLJkki14Cyws-8" value="" style="endArrow=none;html=1;rounded=0;" edge="1" parent="1" source="4cvkdfEpKLJkki14Cyws-9">
          <mxGeometry width="50" height="50" relative="1" as="geometry">
            <mxPoint x="-1913" y="635" as="sourcePoint" />
            <mxPoint x="-1720" y="635" as="targetPoint" />
          </mxGeometry>
        </mxCell>
        <mxCell id="4cvkdfEpKLJkki14Cyws-10" value="" style="endArrow=none;html=1;rounded=0;" edge="1" parent="1" target="4cvkdfEpKLJkki14Cyws-9">
          <mxGeometry width="50" height="50" relative="1" as="geometry">
            <mxPoint x="-1913" y="635" as="sourcePoint" />
            <mxPoint x="-1720" y="635" as="targetPoint" />
          </mxGeometry>
        </mxCell>
        <mxCell id="4cvkdfEpKLJkki14Cyws-9" value="" style="ellipse;whiteSpace=wrap;html=1;aspect=fixed;strokeColor=#000000;fillColor=#000000;" vertex="1" parent="1">
          <mxGeometry x="-1925.38" y="628.5" width="13" height="13" as="geometry" />
        </mxCell>
        <mxCell id="4cvkdfEpKLJkki14Cyws-83" value="NuovoPrimario" style="shape=rhombus;perimeter=rhombusPerimeter;whiteSpace=wrap;html=1;align=center;" vertex="1" parent="1">
          <mxGeometry x="-368" y="-2148" width="175" height="60" as="geometry" />
        </mxCell>
        <mxCell id="4cvkdfEpKLJkki14Cyws-84" value="" style="shape=flexArrow;endArrow=classic;html=1;rounded=0;" edge="1" parent="1">
          <mxGeometry width="50" height="50" relative="1" as="geometry">
            <mxPoint x="-471.68999999999994" y="-1585" as="sourcePoint" />
            <mxPoint x="-472.1681102362203" y="-1489" as="targetPoint" />
          </mxGeometry>
        </mxCell>
        <mxCell id="4cvkdfEpKLJkki14Cyws-85" value="&lt;p style=&quot;margin: 0px 0px 0px 72px; text-indent: -72px; font-stretch: normal; line-height: normal; font-family: Times;&quot;&gt;Nome&lt;/p&gt;" style="ellipse;whiteSpace=wrap;html=1;align=center;" vertex="1" parent="1">
          <mxGeometry x="-309" y="-1558" width="100" height="28" as="geometry" />
        </mxCell>
        <mxCell id="4cvkdfEpKLJkki14Cyws-86" value="&lt;p style=&quot;margin: 0px 0px 0px 72px; text-indent: -72px; font-stretch: normal; line-height: normal; font-family: Times;&quot;&gt;Cognome&lt;/p&gt;" style="ellipse;whiteSpace=wrap;html=1;align=center;" vertex="1" parent="1">
          <mxGeometry x="-433.6499999999999" y="-1564" width="100" height="28" as="geometry" />
        </mxCell>
        <mxCell id="4cvkdfEpKLJkki14Cyws-87" value="&lt;p style=&quot;margin: 0px 0px 0px 72px; text-indent: -72px; font-stretch: normal; line-height: normal; font-family: Times;&quot;&gt;AnzianitÃ Servizio&lt;/p&gt;" style="ellipse;whiteSpace=wrap;html=1;align=center;" vertex="1" parent="1">
          <mxGeometry x="-817.25" y="-1822" width="159" height="28" as="geometry" />
        </mxCell>
        <mxCell id="4cvkdfEpKLJkki14Cyws-89" value="Primario" style="rounded=1;arcSize=10;whiteSpace=wrap;html=1;align=center;" vertex="1" parent="1">
          <mxGeometry x="-776.5" y="-1985" width="253.5" height="66" as="geometry" />
        </mxCell>
        <mxCell id="4cvkdfEpKLJkki14Cyws-90" value="VicePrimario" style="rounded=1;arcSize=10;whiteSpace=wrap;html=1;align=center;" vertex="1" parent="1">
          <mxGeometry x="-395" y="-1985" width="253.5" height="66" as="geometry" />
        </mxCell>
        <mxCell id="4cvkdfEpKLJkki14Cyws-91" value="" style="endArrow=none;html=1;rounded=0;fontSize=12;startSize=8;endSize=8;curved=1;entryX=0.25;entryY=0;entryDx=0;entryDy=0;exitX=0.5;exitY=1;exitDx=0;exitDy=0;" edge="1" parent="1" source="4cvkdfEpKLJkki14Cyws-126" target="4cvkdfEpKLJkki14Cyws-89">
          <mxGeometry relative="1" as="geometry">
            <mxPoint x="-876" y="-1883" as="sourcePoint" />
            <mxPoint x="-684.0582223353406" y="-1919.000109072399" as="targetPoint" />
          </mxGeometry>
        </mxCell>
        <mxCell id="4cvkdfEpKLJkki14Cyws-93" value="" style="endArrow=none;html=1;rounded=0;fontSize=12;startSize=8;endSize=8;curved=1;exitX=0.932;exitY=-0.002;exitDx=0;exitDy=0;exitPerimeter=0;" edge="1" parent="1">
          <mxGeometry relative="1" as="geometry">
            <mxPoint x="-357.68999999999994" y="-1486" as="sourcePoint" />
            <mxPoint x="-292.33000000000004" y="-1533" as="targetPoint" />
          </mxGeometry>
        </mxCell>
        <mxCell id="4cvkdfEpKLJkki14Cyws-94" value="" style="endArrow=none;html=1;rounded=0;fontSize=12;startSize=8;endSize=8;curved=1;" edge="1" parent="1">
          <mxGeometry relative="1" as="geometry">
            <mxPoint x="-441.68999999999994" y="-1486" as="sourcePoint" />
            <mxPoint x="-403" y="-1536" as="targetPoint" />
          </mxGeometry>
        </mxCell>
        <mxCell id="4cvkdfEpKLJkki14Cyws-95" value="" style="endArrow=none;html=1;rounded=0;fontSize=12;startSize=8;endSize=8;curved=1;" edge="1" parent="1">
          <mxGeometry relative="1" as="geometry">
            <mxPoint x="-281.9999999999999" y="-1984" as="sourcePoint" />
            <mxPoint x="-282.2099999999999" y="-2086" as="targetPoint" />
          </mxGeometry>
        </mxCell>
        <mxCell id="4cvkdfEpKLJkki14Cyws-97" value="" style="endArrow=none;html=1;rounded=0;fontSize=12;startSize=8;endSize=8;curved=1;entryX=0;entryY=0.5;entryDx=0;entryDy=0;" edge="1" parent="1" target="4cvkdfEpKLJkki14Cyws-99">
          <mxGeometry relative="1" as="geometry">
            <mxPoint x="-637.2099999999999" y="-2222" as="sourcePoint" />
            <mxPoint x="-597.2800000000001" y="-2218.41" as="targetPoint" />
          </mxGeometry>
        </mxCell>
        <mxCell id="4cvkdfEpKLJkki14Cyws-99" value="Sostituzione" style="rounded=1;arcSize=10;whiteSpace=wrap;html=1;align=center;" vertex="1" parent="1">
          <mxGeometry x="-587.15" y="-2255" width="253.5" height="66" as="geometry" />
        </mxCell>
        <mxCell id="4cvkdfEpKLJkki14Cyws-100" value="" style="endArrow=none;html=1;rounded=0;fontSize=12;startSize=8;endSize=8;curved=1;entryX=0;entryY=0;entryDx=0;entryDy=0;" edge="1" parent="1" target="4cvkdfEpKLJkki14Cyws-109">
          <mxGeometry relative="1" as="geometry">
            <mxPoint x="-636.9999999999999" y="-1984" as="sourcePoint" />
            <mxPoint x="-637.2099999999999" y="-2055" as="targetPoint" />
          </mxGeometry>
        </mxCell>
        <mxCell id="4cvkdfEpKLJkki14Cyws-101" value="PrimarioSostituito" style="shape=rhombus;perimeter=rhombusPerimeter;whiteSpace=wrap;html=1;align=center;" vertex="1" parent="1">
          <mxGeometry x="-724.75" y="-2151" width="175" height="60" as="geometry" />
        </mxCell>
        <mxCell id="4cvkdfEpKLJkki14Cyws-102" value="" style="endArrow=none;html=1;rounded=0;fontSize=12;startSize=8;endSize=8;curved=1;" edge="1" parent="1">
          <mxGeometry relative="1" as="geometry">
            <mxPoint x="-636.7899999999998" y="-2148" as="sourcePoint" />
            <mxPoint x="-637.2099999999999" y="-2223" as="targetPoint" />
          </mxGeometry>
        </mxCell>
        <mxCell id="4cvkdfEpKLJkki14Cyws-103" value="" style="endArrow=none;html=1;rounded=0;fontSize=12;startSize=8;endSize=8;curved=1;" edge="1" parent="1">
          <mxGeometry relative="1" as="geometry">
            <mxPoint x="-281.9999999999999" y="-2148" as="sourcePoint" />
            <mxPoint x="-282.2099999999999" y="-2223" as="targetPoint" />
          </mxGeometry>
        </mxCell>
        <mxCell id="4cvkdfEpKLJkki14Cyws-104" value="" style="endArrow=none;html=1;rounded=0;fontSize=12;startSize=8;endSize=8;curved=1;" edge="1" parent="1">
          <mxGeometry relative="1" as="geometry">
            <mxPoint x="-334.2099999999999" y="-2222.29" as="sourcePoint" />
            <mxPoint x="-281.2099999999999" y="-2222" as="targetPoint" />
          </mxGeometry>
        </mxCell>
        <mxCell id="4cvkdfEpKLJkki14Cyws-106" value="" style="endArrow=none;html=1;rounded=0;fontSize=12;startSize=8;endSize=8;curved=1;entryX=0.638;entryY=1.071;entryDx=0;entryDy=0;entryPerimeter=0;exitX=0;exitY=0.25;exitDx=0;exitDy=0;" edge="1" parent="1" source="4cvkdfEpKLJkki14Cyws-112">
          <mxGeometry relative="1" as="geometry">
            <mxPoint x="-536.6899999999999" y="-1488" as="sourcePoint" />
            <mxPoint x="-658.2480000000004" y="-1805.012" as="targetPoint" />
          </mxGeometry>
        </mxCell>
        <mxCell id="4cvkdfEpKLJkki14Cyws-107" value="(1,1)" style="text;html=1;align=center;verticalAlign=middle;whiteSpace=wrap;rounded=0;fontFamily=Helvetica;fontSize=12;fontColor=default;" vertex="1" parent="1">
          <mxGeometry x="-263" y="-2166" width="42" height="23" as="geometry" />
        </mxCell>
        <mxCell id="4cvkdfEpKLJkki14Cyws-108" value="(1,1)" style="text;html=1;align=center;verticalAlign=middle;whiteSpace=wrap;rounded=0;fontFamily=Helvetica;fontSize=12;fontColor=default;" vertex="1" parent="1">
          <mxGeometry x="-633.4599999999999" y="-2166" width="42" height="23" as="geometry" />
        </mxCell>
        <mxCell id="4cvkdfEpKLJkki14Cyws-109" value="(0,N)" style="text;html=1;align=center;verticalAlign=middle;whiteSpace=wrap;rounded=0;fontFamily=Helvetica;fontSize=12;fontColor=default;" vertex="1" parent="1">
          <mxGeometry x="-638.2099999999999" y="-2088" width="42" height="23" as="geometry" />
        </mxCell>
        <mxCell id="4cvkdfEpKLJkki14Cyws-110" value="(0,N)" style="text;html=1;align=center;verticalAlign=middle;whiteSpace=wrap;rounded=0;fontFamily=Helvetica;fontSize=12;fontColor=default;" vertex="1" parent="1">
          <mxGeometry x="-327.49999999999994" y="-2080" width="42" height="23" as="geometry" />
        </mxCell>
        <mxCell id="4cvkdfEpKLJkki14Cyws-111" value="" style="endArrow=none;html=1;rounded=0;exitX=0;exitY=0.5;exitDx=0;exitDy=0;entryX=1;entryY=0.5;entryDx=0;entryDy=0;" edge="1" parent="1" source="4cvkdfEpKLJkki14Cyws-112" target="4cvkdfEpKLJkki14Cyws-112">
          <mxGeometry width="50" height="50" relative="1" as="geometry">
            <mxPoint x="-651.6899999999999" y="-1722" as="sourcePoint" />
            <mxPoint x="-298.68999999999994" y="-1722" as="targetPoint" />
            <Array as="points">
              <mxPoint x="-651.6899999999999" y="-1757" />
              <mxPoint x="-651.6899999999999" y="-1587" />
              <mxPoint x="-298.68999999999994" y="-1587" />
              <mxPoint x="-298.68999999999994" y="-1757" />
            </Array>
          </mxGeometry>
        </mxCell>
        <mxCell id="4cvkdfEpKLJkki14Cyws-112" value="PersonaleMedico" style="rounded=1;arcSize=10;whiteSpace=wrap;html=1;align=center;" vertex="1" parent="1">
          <mxGeometry x="-598.63" y="-1790" width="253.5" height="66" as="geometry" />
        </mxCell>
        <mxCell id="4cvkdfEpKLJkki14Cyws-113" value="" style="endArrow=none;html=1;rounded=0;exitX=0.5;exitY=1;exitDx=0;exitDy=0;" edge="1" parent="1">
          <mxGeometry width="50" height="50" relative="1" as="geometry">
            <mxPoint x="-612.4599999999999" y="-1918" as="sourcePoint" />
            <mxPoint x="-322.68999999999994" y="-1918" as="targetPoint" />
            <Array as="points">
              <mxPoint x="-612.6899999999999" y="-1851" />
              <mxPoint x="-322.68999999999994" y="-1851" />
            </Array>
          </mxGeometry>
        </mxCell>
        <mxCell id="4cvkdfEpKLJkki14Cyws-114" value="" style="shape=flexArrow;endArrow=classic;html=1;rounded=0;" edge="1" parent="1">
          <mxGeometry width="50" height="50" relative="1" as="geometry">
            <mxPoint x="-467.68999999999994" y="-1851" as="sourcePoint" />
            <mxPoint x="-467.5281102362202" y="-1790" as="targetPoint" />
          </mxGeometry>
        </mxCell>
        <mxCell id="4cvkdfEpKLJkki14Cyws-115" value="&lt;p style=&quot;margin: 0px 0px 0px 72px; text-indent: -72px; font-stretch: normal; line-height: normal; font-family: Times;&quot;&gt;&lt;b&gt;CodiceRersonale&lt;/b&gt;&lt;/p&gt;" style="ellipse;whiteSpace=wrap;html=1;align=center;fontStyle=4;" vertex="1" parent="1">
          <mxGeometry x="-436" y="-1379" width="123" height="32" as="geometry" />
        </mxCell>
        <mxCell id="4cvkdfEpKLJkki14Cyws-116" value="" style="endArrow=none;html=1;rounded=0;" edge="1" parent="1">
          <mxGeometry relative="1" as="geometry">
            <mxPoint x="-312" y="-1397" as="sourcePoint" />
            <mxPoint x="-553" y="-1397" as="targetPoint" />
            <Array as="points" />
          </mxGeometry>
        </mxCell>
        <mxCell id="4cvkdfEpKLJkki14Cyws-117" value="Personale" style="rounded=1;arcSize=10;whiteSpace=wrap;html=1;align=center;" vertex="1" parent="1">
          <mxGeometry x="-595" y="-1486" width="253.5" height="66" as="geometry" />
        </mxCell>
        <mxCell id="4cvkdfEpKLJkki14Cyws-122" value="" style="endArrow=none;html=1;rounded=0;fontSize=12;startSize=8;endSize=8;curved=1;exitX=0.865;exitY=0.995;exitDx=0;exitDy=0;exitPerimeter=0;" edge="1" parent="1" source="4cvkdfEpKLJkki14Cyws-117" target="4cvkdfEpKLJkki14Cyws-115">
          <mxGeometry relative="1" as="geometry">
            <mxPoint x="-382.02" y="-1420" as="sourcePoint" />
            <mxPoint x="-395.9977600198331" y="-1374.3161293202306" as="targetPoint" />
          </mxGeometry>
        </mxCell>
        <mxCell id="4cvkdfEpKLJkki14Cyws-123" value="" style="ellipse;whiteSpace=wrap;html=1;aspect=fixed;strokeColor=#000000;fillColor=#000000;" vertex="1" parent="1">
          <mxGeometry x="-313" y="-1403" width="13" height="13" as="geometry" />
        </mxCell>
        <mxCell id="4cvkdfEpKLJkki14Cyws-126" value="&lt;p style=&quot;margin: 0px 0px 0px 72px; text-indent: -72px; font-stretch: normal; line-height: normal; font-family: Times;&quot;&gt;Specializzazione&lt;/p&gt;" style="ellipse;whiteSpace=wrap;html=1;align=center;" vertex="1" parent="1">
          <mxGeometry x="-863" y="-2057" width="159" height="28" as="geometry" />
        </mxCell>
        <mxCell id="4cvkdfEpKLJkki14Cyws-127" value="" style="endArrow=none;html=1;rounded=0;" edge="1" parent="1">
          <mxGeometry relative="1" as="geometry">
            <mxPoint x="-443.88" y="-2275" as="sourcePoint" />
            <mxPoint x="-261.88" y="-2169" as="targetPoint" />
            <Array as="points">
              <mxPoint x="-681.88" y="-2274.86" />
              <mxPoint x="-681.88" y="-2169" />
            </Array>
          </mxGeometry>
        </mxCell>
        <mxCell id="4cvkdfEpKLJkki14Cyws-128" value="" style="ellipse;whiteSpace=wrap;html=1;aspect=fixed;strokeColor=#000000;fillColor=#000000;" vertex="1" parent="1">
          <mxGeometry x="-446.6499999999999" y="-2283" width="13" height="13" as="geometry" />
        </mxCell>
        <mxCell id="4cvkdfEpKLJkki14Cyws-132" value="&lt;p style=&quot;margin: 0px 0px 0px 72px; text-indent: -72px; font-stretch: normal; line-height: normal; font-family: Times;&quot;&gt;&lt;b&gt;DataInizio&lt;/b&gt;&lt;/p&gt;" style="ellipse;whiteSpace=wrap;html=1;align=center;fontStyle=4;" vertex="1" parent="1">
          <mxGeometry x="-690" y="-2380" width="123" height="32" as="geometry" />
        </mxCell>
        <mxCell id="4cvkdfEpKLJkki14Cyws-133" value="&lt;p style=&quot;margin: 0px 0px 0px 72px; text-indent: -72px; font-stretch: normal; line-height: normal; font-family: Times;&quot;&gt;DataFine&lt;/p&gt;" style="ellipse;whiteSpace=wrap;html=1;align=center;" vertex="1" parent="1">
          <mxGeometry x="-413" y="-2372" width="100" height="28" as="geometry" />
        </mxCell>
        <mxCell id="4cvkdfEpKLJkki14Cyws-134" value="" style="endArrow=none;html=1;rounded=0;fontSize=12;startSize=8;endSize=8;curved=1;exitX=0.25;exitY=0;exitDx=0;exitDy=0;" edge="1" parent="1" source="4cvkdfEpKLJkki14Cyws-99">
          <mxGeometry relative="1" as="geometry">
            <mxPoint x="-553.0000000000001" y="-2257" as="sourcePoint" />
            <mxPoint x="-622" y="-2348" as="targetPoint" />
          </mxGeometry>
        </mxCell>
        <mxCell id="4cvkdfEpKLJkki14Cyws-135" value="" style="endArrow=none;html=1;rounded=0;fontSize=12;startSize=8;endSize=8;curved=1;exitX=0.162;exitY=0.048;exitDx=0;exitDy=0;exitPerimeter=0;" edge="1" parent="1">
          <mxGeometry relative="1" as="geometry">
            <mxPoint x="-393.5" y="-2255" as="sourcePoint" />
            <mxPoint x="-368" y="-2343" as="targetPoint" />
          </mxGeometry>
        </mxCell>
        <mxCell id="4cvkdfEpKLJkki14Cyws-152" value="NuovoPrimario" style="shape=rhombus;perimeter=rhombusPerimeter;whiteSpace=wrap;html=1;align=center;" vertex="1" parent="1">
          <mxGeometry x="-1324.65" y="-911" width="175" height="60" as="geometry" />
        </mxCell>
        <mxCell id="4cvkdfEpKLJkki14Cyws-153" value="" style="endArrow=none;html=1;rounded=0;fontSize=12;startSize=8;endSize=8;curved=1;exitX=0.5;exitY=0;exitDx=0;exitDy=0;" edge="1" parent="1">
          <mxGeometry relative="1" as="geometry">
            <mxPoint x="-1257.65" y="-648" as="sourcePoint" />
            <mxPoint x="-1257.65" y="-715" as="targetPoint" />
          </mxGeometry>
        </mxCell>
        <mxCell id="4cvkdfEpKLJkki14Cyws-154" value="" style="endArrow=none;html=1;rounded=0;fontSize=12;startSize=8;endSize=8;curved=1;exitX=0.5;exitY=1;exitDx=0;exitDy=0;entryX=0;entryY=0;entryDx=0;entryDy=0;" edge="1" parent="1">
          <mxGeometry relative="1" as="geometry">
            <mxPoint x="-1500.52" y="-1062" as="sourcePoint" />
            <mxPoint x="-1495.65" y="-1015" as="targetPoint" />
          </mxGeometry>
        </mxCell>
        <mxCell id="4cvkdfEpKLJkki14Cyws-155" value="" style="shape=flexArrow;endArrow=classic;html=1;rounded=0;" edge="1" parent="1">
          <mxGeometry width="50" height="50" relative="1" as="geometry">
            <mxPoint x="-1417.7" y="-648" as="sourcePoint" />
            <mxPoint x="-1418.1781102362204" y="-552" as="targetPoint" />
          </mxGeometry>
        </mxCell>
        <mxCell id="4cvkdfEpKLJkki14Cyws-156" value="" style="endArrow=none;html=1;rounded=0;fontSize=12;startSize=8;endSize=8;curved=1;" edge="1" parent="1">
          <mxGeometry relative="1" as="geometry">
            <mxPoint x="-1579.46" y="-648.03" as="sourcePoint" />
            <mxPoint x="-1256.46" y="-648.03" as="targetPoint" />
          </mxGeometry>
        </mxCell>
        <mxCell id="4cvkdfEpKLJkki14Cyws-161" value="" style="endArrow=none;html=1;rounded=0;fontSize=12;startSize=8;endSize=8;curved=1;exitX=0.5;exitY=0;exitDx=0;exitDy=0;" edge="1" parent="1">
          <mxGeometry relative="1" as="geometry">
            <mxPoint x="-1579.65" y="-649" as="sourcePoint" />
            <mxPoint x="-1579.2900000000004" y="-715" as="targetPoint" />
          </mxGeometry>
        </mxCell>
        <mxCell id="4cvkdfEpKLJkki14Cyws-165" value="Primario" style="rounded=1;arcSize=10;whiteSpace=wrap;html=1;align=center;" vertex="1" parent="1">
          <mxGeometry x="-1693.65" y="-781" width="253.5" height="66" as="geometry" />
        </mxCell>
        <mxCell id="4cvkdfEpKLJkki14Cyws-166" value="Vice Primario" style="rounded=1;arcSize=10;whiteSpace=wrap;html=1;align=center;" vertex="1" parent="1">
          <mxGeometry x="-1409.65" y="-781" width="253.5" height="66" as="geometry" />
        </mxCell>
        <mxCell id="4cvkdfEpKLJkki14Cyws-174" value="" style="endArrow=none;html=1;rounded=0;fontSize=12;startSize=8;endSize=8;curved=1;" edge="1" parent="1">
          <mxGeometry relative="1" as="geometry">
            <mxPoint x="-1236.44" y="-781" as="sourcePoint" />
            <mxPoint x="-1236.65" y="-852" as="targetPoint" />
          </mxGeometry>
        </mxCell>
        <mxCell id="4cvkdfEpKLJkki14Cyws-175" value="" style="endArrow=none;html=1;rounded=0;fontSize=12;startSize=8;endSize=8;curved=1;entryX=0.202;entryY=0.923;entryDx=0;entryDy=0;entryPerimeter=0;" edge="1" parent="1" target="4cvkdfEpKLJkki14Cyws-178">
          <mxGeometry relative="1" as="geometry">
            <mxPoint x="-1291.5800000000002" y="-1015" as="sourcePoint" />
            <mxPoint x="-1251.65" y="-1014.4099999999999" as="targetPoint" />
          </mxGeometry>
        </mxCell>
        <mxCell id="4cvkdfEpKLJkki14Cyws-177" value="" style="endArrow=none;html=1;rounded=0;fontSize=12;startSize=8;endSize=8;curved=1;entryX=0;entryY=0.5;entryDx=0;entryDy=0;" edge="1" parent="1" target="4cvkdfEpKLJkki14Cyws-183">
          <mxGeometry relative="1" as="geometry">
            <mxPoint x="-1591.65" y="-985" as="sourcePoint" />
            <mxPoint x="-1551.7200000000003" y="-981.4099999999999" as="targetPoint" />
          </mxGeometry>
        </mxCell>
        <mxCell id="4cvkdfEpKLJkki14Cyws-178" value="&lt;p style=&quot;margin: 0px 0px 0px 72px; text-indent: -72px; font-stretch: normal; line-height: normal; font-family: Times;&quot;&gt;DataFine&lt;/p&gt;" style="ellipse;whiteSpace=wrap;html=1;align=center;" vertex="1" parent="1">
          <mxGeometry x="-1266.15" y="-1087" width="100" height="28" as="geometry" />
        </mxCell>
        <mxCell id="4cvkdfEpKLJkki14Cyws-182" value="&lt;p style=&quot;margin: 0px 0px 0px 72px; text-indent: -72px; font-stretch: normal; line-height: normal; font-family: Times;&quot;&gt;&lt;b&gt;DataInizio&lt;/b&gt;&lt;/p&gt;" style="ellipse;whiteSpace=wrap;html=1;align=center;fontStyle=4;" vertex="1" parent="1">
          <mxGeometry x="-1600.65" y="-1091" width="123" height="32" as="geometry" />
        </mxCell>
        <mxCell id="4cvkdfEpKLJkki14Cyws-183" value="Sostituzione" style="rounded=1;arcSize=10;whiteSpace=wrap;html=1;align=center;" vertex="1" parent="1">
          <mxGeometry x="-1541.5900000000001" y="-1018" width="253.5" height="66" as="geometry" />
        </mxCell>
        <mxCell id="4cvkdfEpKLJkki14Cyws-184" value="" style="endArrow=none;html=1;rounded=0;fontSize=12;startSize=8;endSize=8;curved=1;" edge="1" parent="1">
          <mxGeometry relative="1" as="geometry">
            <mxPoint x="-1591.44" y="-781" as="sourcePoint" />
            <mxPoint x="-1591.65" y="-852" as="targetPoint" />
          </mxGeometry>
        </mxCell>
        <mxCell id="4cvkdfEpKLJkki14Cyws-185" value="PrimarioSostituito" style="shape=rhombus;perimeter=rhombusPerimeter;whiteSpace=wrap;html=1;align=center;" vertex="1" parent="1">
          <mxGeometry x="-1678.65" y="-911" width="175" height="60" as="geometry" />
        </mxCell>
        <mxCell id="4cvkdfEpKLJkki14Cyws-186" value="" style="endArrow=none;html=1;rounded=0;fontSize=12;startSize=8;endSize=8;curved=1;" edge="1" parent="1">
          <mxGeometry relative="1" as="geometry">
            <mxPoint x="-1591.23" y="-911" as="sourcePoint" />
            <mxPoint x="-1591.65" y="-986" as="targetPoint" />
          </mxGeometry>
        </mxCell>
        <mxCell id="4cvkdfEpKLJkki14Cyws-187" value="" style="endArrow=none;html=1;rounded=0;fontSize=12;startSize=8;endSize=8;curved=1;" edge="1" parent="1">
          <mxGeometry relative="1" as="geometry">
            <mxPoint x="-1236.44" y="-911" as="sourcePoint" />
            <mxPoint x="-1236.65" y="-986" as="targetPoint" />
          </mxGeometry>
        </mxCell>
        <mxCell id="4cvkdfEpKLJkki14Cyws-188" value="" style="endArrow=none;html=1;rounded=0;fontSize=12;startSize=8;endSize=8;curved=1;" edge="1" parent="1">
          <mxGeometry relative="1" as="geometry">
            <mxPoint x="-1288.65" y="-985.29" as="sourcePoint" />
            <mxPoint x="-1235.65" y="-985" as="targetPoint" />
          </mxGeometry>
        </mxCell>
        <mxCell id="4cvkdfEpKLJkki14Cyws-189" value="" style="endArrow=none;html=1;rounded=0;" edge="1" parent="1">
          <mxGeometry relative="1" as="geometry">
            <mxPoint x="-1389.65" y="-1038" as="sourcePoint" />
            <mxPoint x="-1207.65" y="-932" as="targetPoint" />
            <Array as="points">
              <mxPoint x="-1627.65" y="-1037.8600000000001" />
              <mxPoint x="-1627.65" y="-932" />
            </Array>
          </mxGeometry>
        </mxCell>
        <mxCell id="4cvkdfEpKLJkki14Cyws-190" value="" style="ellipse;whiteSpace=wrap;html=1;aspect=fixed;strokeColor=#000000;fillColor=#000000;" vertex="1" parent="1">
          <mxGeometry x="-1393.15" y="-1045" width="13" height="13" as="geometry" />
        </mxCell>
        <mxCell id="4cvkdfEpKLJkki14Cyws-192" value="Personale Medico" style="rounded=1;arcSize=10;whiteSpace=wrap;html=1;align=center;" vertex="1" parent="1">
          <mxGeometry x="-1535.77" y="-552" width="253.5" height="66" as="geometry" />
        </mxCell>
        <mxCell id="4cvkdfEpKLJkki14Cyws-193" value="(1,1)" style="text;html=1;align=center;verticalAlign=middle;whiteSpace=wrap;rounded=0;fontFamily=Helvetica;fontSize=12;fontColor=default;" vertex="1" parent="1">
          <mxGeometry x="-1299.27" y="-929" width="42" height="23" as="geometry" />
        </mxCell>
        <mxCell id="4cvkdfEpKLJkki14Cyws-194" value="" style="shape=flexArrow;endArrow=classic;html=1;rounded=0;" edge="1" parent="1">
          <mxGeometry width="50" height="50" relative="1" as="geometry">
            <mxPoint x="-1416.5200000000002" y="-482" as="sourcePoint" />
            <mxPoint x="-1416.9981102362206" y="-386" as="targetPoint" />
          </mxGeometry>
        </mxCell>
      </root>
    </mxGraphModel>
  </diagram>
</mxfile>
